<?xml version="1.0" encoding="UTF-8"?>
<svg enable-background="new 0 0 1430.054 1666.277" version="1.1" viewBox="0 0 1430.054 1666.277" xmlns="http://www.w3.org/2000/svg">
 <path d="m890.82 696.26c-0.641 0.718 0.328 2.261 1.268 1.795 0.565-0.749-0.351-2.268-1.268-1.795z"/>
 <path d="m460.79 85.335c0.018-3e-3 0.036-7e-3 0.055-0.01-1e-3 -1e-3 0.051-0.096-0.055 0.01z"/>
 <path d="m1357.1 1476.9c3.954 9.181 41.123 54.993 41.058 59.602-14.895-18.828-46.324-63.854-49.085-69.103 2.368 2.291 3.505 5.736 6.507 7.37-1.608-4.35-16.424-23.54-19.071-26.242-0.344 2.986 1.894 5.331 3.315 7.729-0.481-0.084-1.444-0.252-1.925-0.328 2.208 5.473 63.057 87.107 63.795 88.12v-7.599c-13.295-16.086-41.382-56.831-44.594-59.549z"/>
 <path d="m1108.4 1400.7c2.666 3.796 4.41 6.277 4.41 6.277-1.266-2.239-2.801-4.284-4.41-6.277z"/>
 <path d="m929.1 382.27c-0.825-2.138-2.276-4.116-4.399-5.086 0.29 2.337 2.451 4.009 4.399 5.086z"/>
 <path d="m1320.7 1428.3c0.359 4.427 63.704 116.27 64.512 117.27 0.634 4.804 4.376 8.645 5.01 13.503 0.397 1.734 0.374 4.475 2.803 4.453 2.828-10.111-22.01-49.046-30.495-63.917-20.09-28.749-41.163-70.306-41.83-71.31z"/>
 <path d="m1329.1 1617.7c-2.299-2.971-5.056-5.697-8.424-7.416 0.802 3.116 3.307 5.384 4.896 8.126 0.893 1.703 2.566 0 3.528-0.71z"/>
 <path d="m179.5 991.5c-1.046 1.673-0.405 3.826-1.23 5.598-0.489 1.039-1.069 2.032-1.604 3.063 2.029 0.168 6.672-5.648 6.858-7.156-1.253 0.962-2.436 2.024-3.597 3.108-0.106-1.551-0.22-3.093-0.427-4.613z"/>
 <path d="m731.17 68.856c-2.451 1.764-4.3 4.46-4.987 7.408 2.521-1.635 4.346-4.499 4.987-7.408z"/>
 <path d="m1320.8 1618.6c1.78 5.545 4.972 11.066 9.814 14.503-1.62-5.682-5.064-10.944-9.814-14.503z"/>
 <path d="m891.28 532.2c0.235 1.846 4.148 8.827 5.705 9.837-1.161-3.559-2.811-7.393-5.705-9.837z"/>
 <path d="m882.76 469.73c0.794 1.665 2.307 2.948 4.147 3.315-0.955-1.543-2.192-3.155-4.147-3.315z"/>
 <path d="m364.44 137c0.021-0.015 0.044-0.035 0.066-0.049 0 0 0.024-0.068-0.066 0.049z"/>
 <path d="m900.71 304.18c0.329-8e-3 0.985-0.023 1.314-0.031-0.813-2.148-11.08-7.207-13.916-7.79 1.202 2.82 3.603 2.415 12.602 7.821z"/>
 <path d="m935.23 508.24c-1.696-1.619-3.941-2.391-5.965-3.46 0.023-0.26 0.061-0.779 0.084-1.039-4.682-0.527-8.897-2.963-13.61-3.322 0.964 1.566 18.49 7.831 19.491 7.821z"/>
 <path d="m947.82 528.63c-0.738-2.668-12.035-11.679-14.465-12.884 1.324 1.935 12.346 10.81 14.465 12.884z"/>
 <path d="m389.74 128.41c-2.247 0.472-10.308 8.437-10.86 9.401 1.414 3.092 9.446-6.403 10.86-9.401z"/>
 <path d="m1377.3 1578c-10.046-7.462-10.689-13.494-16.764-19.185-8.399-8.461-5.143-10.897-9.654-16.359-0.046-0.878-0.245-1.756-0.321-2.581 3.268 1.039 4.704 4.475 6.835 6.904 1.574 3.712 4.598 6.461 6.561 9.959 0.307-5.704-14.222-22.874-16.672-24.478-1.492-2.677-6.319-10.941-8.638-13.892 0.459-0.84 1.268-1.107 2.177-1.115 2.711 2.688 5.705 5.094 8.271 7.95 2.887 3.017 4.537 6.958 7.294 10.089-0.687-2.146-2.047-4.102-1.894-6.431-4.909-6.554-14.646-15.177-15.435-15.481-0.718-1.635-1.55-3.193-2.52-4.659-0.252-2.185-0.359-4.361-0.374-6.538-1.23-3.368-2.353-6.766-3.613-10.104l-0.481-0.221c-0.262-1.012-5.244-16.235-6.621-18.818l0.183-0.229c-3.795-9.356-8.217-18.437-12.563-27.548-0.933-1.965-15.849-53.519-13.449-53.561 9.675 24.442 9.84 33.372 17.314 48.772 0.038 1.619 0.397 3.322 1.451 4.628-0.058 1.485 4.148 18.906 6.309 15.481-0.573-2.046-1.413-4.002-1.619-6.117 1e-3 1e-3 43.518 81.398 43.518 81.399 0.443 3.269 2.39 6.163 4.605 8.546 0.291-0.184 0.856-0.55 1.146-0.741-1.593-3.993 0.49-3.931-9.669-19.017-3.372-10.663-16.004-25.786-30.649-56.089 0.434-1.475-4.598-8.656-6.606-14.855 3.785 3.4 4.597 7.845 6.973 8.264 0 1e-3 10.714 17.878 10.715 17.879 0.264 3.17 34.474 59.538 35.032 60.541 0.504 0 1.52 8e-3 2.024 8e-3 0 0-51.391-88.553-51.392-88.555 0.211-3.413-13.243-26.163-13.381-34.063 1.856 2.108 1.695 5.339 3.826 7.233 7e-3 -0.596 0.015-1.795 0.015-2.398 2.003-0.393-1.905-6.18-3.009-7.141-1.878-4.565-16.886-32.286-18.368-39.684 0.986 1.032 1.963 2.086 3.017 3.086 0.519 1.764 1.634 3.314 2.986 4.582 5.761 11.293 15.836 16.278 20.987 33.421 0.802-0.229 1.626-0.45 2.459-0.664-1.675-5.416-4.477-15.331-9.073-17.688-0.482-1.344-0.94-2.849-2.154-3.681-2.128-10.286-6.588-17.128-10.219-20.3 0.275-0.344 0.825-1.031 1.1-1.375 14.018 13.73 5.253 7.62 20.445 26.143 0.124-7.267-6.486-4.425-5.652-19.781 2.996 3.924 3.034 12.734 15.183 20.605 0.527 0.932 1.085 1.864 1.642 2.826 0.321-0.573 0.672-1.115 1.039-1.642h2.459c-1.108-1.688-2.673-2.979-4.01-4.445-0.076-3.162-1.81-5.903-2.329-8.943 11.673 7.577 5.706 2.208 23.767 13.472l0.718-0.076c8.51 6.781 6.208 7.928 9.15 11.143 0.152-2.999-1.106-8.547-2.963-8.997 0.114-1.963-0.336-3.926-2.192-4.873-2.23-2.383-3.299-5.713-6.079-7.546-10.754-8.275-13.243-7.117-15.55-10.708-0.71-1.001-18.43-20.033-21.789-26.097-3.352-5.178-5.506-11.021-8.966-16.13-2.826-11.498-14.336-27.634-15.809-39.76 0-1e-3 -1.794-34.29-1.795-34.292-1.001 8.386-0.245 16.871-0.718 25.287-0.328-2.566-0.29-5.155-0.542-7.706-2.495 4.294 1.66 23.543 3.956 27.785 0.42 2.589 1.153 5.133 1.772 7.691-0.199 0.779-0.298 1.589-0.283 2.429 2.235-0.14 6.992 16.714 6.484 18.956-24.963-54.731-9.454-67.62-11.739-87.005 2.556-2.252 0.059-32.497-0.535-49.108-0.18-6.206 2.354-41.1-1.68-46.756-0.082 1.002-2.118 72.093-0.214 75.159-0.122 3.254 0.084 6.515 0.649 9.738 1.109 17.076-4.088 36.322-4.43 39.653-1.298 8.661 0.497 17.383-0.099 26.082-7.888-14.942 5.56-75.575 0.298-79.092 0.298-0.924 0.451-1.871 0.466-2.833l-0.321-0.435c-0.774-29.75 5.325-58.41 1.505-70.577-5.073-18.126-3.446-75.53-5.003-86.394-0.198 0.237-0.58 0.711-0.771 0.955 0 3e-3 0.458 59.785 0.458 59.785-1.96-41.388-1.856-57.005-1.856-57.005 2.576-8.289-15.359-64.946-17.734-73.212l0.26-0.474c-1.757-9.898-2.024-20.155-5.53-29.686-2.5-8.317-11.761-26.443-14.679-26.906-5.371-12.769-45.434-43.09-50.315-44.22-4.269-2.696-8.584-5.324-12.655-8.325-1.764-2.643-4.315-4.918-7.263-6.125-0.696-1.012-48.727-55.106-122.47-117.9-23.774-16.828-117.24-35.813-136.88-43.884-0.541-1.07-21.567-31.51-19.796-44.182 2.123 2.498 2.735 5.881 3.987 8.852 2.146 8.547 5.4 16.971 10.303 24.31-2.757-6.63-6.835-12.785-8.561-19.804 0.138-0.282 0.413-0.848 0.55-1.13-7.598-17.253-8.418-20.968-7.447-25.073-0.191-1.733-1.191-3.306-1.573-5.002-0.229 0.107-0.68 0.32-0.901 0.435-0.55-1.635-0.886-3.315-0.955-5.018 0.405 0.726 0.909 1.405 1.512 2.024l0.351-1.046c5.879 11.018-0.343 8.361 6.813 11.127-0.702-2.459-2.742-4.262-3.368-6.744 1 0.878 28.642 28.311 38.049 31.878-9.241-7.675-18.933-14.931-26.983-23.92 15.916-2.787 57.091 48.185 107.21 67.361-1.003-0.795-77.677-44.816-91.885-65.001 36.616 0.709 33.838 8.857 47.604 11.578-3.997-2.183-15.457-6.368-16.458-8.546 12.204 0.848 24.248 3.177 36.384 4.651-3.636-1.336-7.592-1.313-11.342-2.138-39.813-6.743-19.387 0.537-43.716-12.044-8.077-4.517-22.293-12.303-23.37-15.007 1.13 0.267 2.314 0.596 3.475 0.901 0 0-8.225-3.761-12.953-7.171-0.436-2.436-1.872-4.514-2.765-6.782 0.367-0.184 1.093-0.558 1.459-0.741 0.756 0.58 1.459 1.245 2.177 1.917 0.962 1.741 2.68 2.971 4.666 3.284-0.543-1.108-1.108-2.192-1.673-3.269 7.905 2.436 18.494 8.287 21.201 7.981-0.749-1.497-2.467-1.841-3.842-2.467-31.702-12.075-25.836-11.772-30.969-17.001-0.26-0.764-0.512-1.527-0.741-2.276 32.302 8.93 72.483 17.889 81.452 22.561 0.184-0.168 0.558-0.519 0.741-0.695-28.364-8.932-82.781-23.676-82.781-23.676-1.016-1.077-1.757-2.368-2.612-3.544 0.069-0.527 0.206-1.573 0.275-2.1 1.001 0.14 60.707 16.648 64.91 16.726-5.597-4.452-51.267-12.894-56.936-16.817 0.412-0.267 1.237-0.794 1.657-1.054 11.935 3.119 38.138 2.369 42.792 2.154-12.272-1.148-36.471 0.449-48.856-5.766-1.94-2.826-4.957-4.727-6.79-7.599 0.13-0.259 0.405-0.779 0.542-1.046 4.323 1.359 8.562 3.467 13.213 3.307-0.84-0.642-2.047-0.94-2.36-2.032 1.406 0.061 2.88 0.489 4.262-0.061-1.688-1.375-3.62-2.414-5.69-3.04-1.115-0.734-2.169-1.528-3.322-2.177-0.504-3.322-3.238-5.56-4.422-8.569 1.621 0.107 1.746 0.433 8.21 7.462 0.122-0.313 0.367-0.947 0.489-1.26 3.322 3.559 7.156 6.652 11.005 9.585l0.359-0.619c-0.01-0.012-9.377-8.423-13.931-13.541 0.543-0.076 1.635-0.237 2.177-0.313 3.009 2.314 6.003 4.651 8.928 7.095l0.023 0.458c1.314 1.123 2.711 2.528 4.613 2.207 2.676 2.175 13.418 9.296 17.94 10.295-0.116-0.177-17.696-11.938-21.507-15.183 6.768-0.454 5.617 3.229 32.581 14.595 7.347 3.154 14.771 6.324 22.576 8.195 0.202-2.556 0.408 0.182-28.38-12.403-4.196-1.718-20.85-11.035-21.14-10.983-4.43-3.184-9.249-5.766-13.656-8.981 4.117-0.809 7.829 2.291 11.93 2.551 9.811 5.875 6.628 5.964 13.488 9.02-3.352-3.185-6.194-7.011-10.272-9.318-10.839-7.214-8.044-8.395-12.518-11.914-1.008-3.238-4.269-5.216-5.308-8.508 21.382 10.49 15.055 12.626 32.856 27.471-0.392-1-8.069-13.535-12.846-18.238-0.657-1.924-1.864-3.566-2.979-5.216 6.017 2.007 19.739 21.908 28.075 22.332-2.505-4.155-7.118-6.652-9.18-11.143 2.986 1.092 3.803 5.025 6.927 6.163-0.686-1.817-24.335-35.306-26.333-35.75-3.712-6.743-8.386-12.869-12.548-19.322 0.344 0.092 1.016 0.29 1.352 0.382 7.095 10.583 22.361 26.385 23.34 27.395l-0.023 0.557c5.194 6.471 19.946 20.089 21.56 20.262 48.075 40.019 92.293 46.055 93.298 46.022-4.66-1.551-59.127-14.348-90.098-45.694-1.556-2.213-30.891-33.748-32.879-34.36-6.95-9.14-9.595-9.974-10.211-13.121 6.11 0.84 12.151 2.864 17.551 5.873 0.161 1.248 7.675 9.389 12.021 11.013 1.012 0.836 14.032 12.885 15.664 13.892-1.153-1.642-3.444-2.719-3.452-4.926-5.254-2.918-8.775-8.027-13.197-11.968-0.275-0.955-0.283-1.947-0.298-2.925-0.909-0.565-1.84-1.069-2.818-1.451-2.222-1.841-4.094-4.048-6.316-5.873 2.979-0.458 5.66 2.1 8.646 1.703 4.575 0.927 4.975 2.797 6.194 4.804 0.779-0.321 1.558-0.627 2.36-0.932 0.459 0.504 0.986 0.963 1.566 1.375-0.261 2.772 4.269 3.54 10.983 12.212 0.916 1.1 1.802 2.429 3.345 2.681-2.138-4.873-6.996-7.599-9.791-11.968 17.7 11.825 24.824 40.855 39.424 51.621-9.023-8.107-20.93-30.903-22.484-33.742 1.877-0.962 10.971 13.42 15.924 17.054-0.384-2.732-6.218-7.155-8.493-12.869 0.81 0.443 1.619 0.878 2.467 1.321 0 0-5.893-8.485-8.195-13.907 4.483 2.993 8.118 7.018 12.227 10.478 0.329 1.002 28.37 34.63 69.912 55.936 0.549 0.296 19.574 9.105 20.575 9.172-6.976-4.517-31.093-14.3-41.547-21.69 4.392 0.466 7.485 4.27 11.8 5.102-0.283-0.578-23.358-15.302-23.607-15.389-18.374-16.325-18.69-22.635-26.731-27.349-1.474-2.367-3.842-3.956-5.461-6.201 2.572 1.064 15.481 13.454 16.787 14.45-1.446-4.521-13.783-12.657-14.121-15.695 2.596 1.879 5.514 3.253 8.08 5.178 2.452 1.94 4.399 4.559 7.225 5.995 1.253 1.13 2.337 2.444 3.521 3.658-0.665 2.727 2.612 1.719 3.666 3.269 0.843 1 12.19 13.6 13.808 14.511-0.481-1.718-1.474-3.215-2.337-4.735 4.941 5.191 23.469 24.099 30.779 23.859-5.338-3.987-11.402-7.103-16.122-11.884 0.428-0.122 1.291-0.374 1.726-0.496-3.536-3.72-8.477-5.805-12.128-9.425-18.833-19.429-8.08-10.514-20.529-24.195l0.359-0.649c7.002 5.55 16.111 20.324 19.987 20.85-0.205-0.45-11.872-14.776-18.498-21.43 0.352-0.115 1.047-0.336 1.398-0.443-6.588-8.515-7.684-4.257-7.767-10.043 2.093 2.006 49.727 42.184 58.708 42.769-1.268-2.131-4.132-2.444-5.858-4.155-0.321-0.053-0.97-0.152-1.291-0.198l-0.061-0.588 0.55-0.237c0.199 0.259 0.603 0.763 0.802 1.023 1.001 0.441 16.591 7.416 18.184 7.103-0.634-1.069-1.635-1.703-2.765-2.077-13.656-5.422-27.304-11.861-38.225-21.873 5.151 2.099 30.739 14.228 33.627 12.548-56.651-23.564-33.642-17.378-43.976-22.82-1.203-4.19-14.692-17.299-14.427-20.033 1.464 1.622 13.445 11.088 17.024 12.609-5.048-4.536-10.83-8.301-15.58-13.151 5.086 1.664 9.516 5.17 14.824 6.224-25.18-12.21-21.583-12.07-31.328-18.681-1.149-3.346-22.895-20.095-30.557-22.37-14.232-9.789-15.711-10.24-18.406-10.639 0 0 17.197 10.985 19.658 13.113l0.13 0.359c1.512 1.375 3.192 2.574 4.796 3.857l-0.542 0.351c-3.612-1.909-6.698-4.621-10.287-6.553-0.207-2.353-9.481-6.816-10.814-7.317-0.541-2.076-7.314-4.234-14.343-9.096 3.85 0.825 6.675 3.964 10.494 4.773-2.966-4.586-22.315-11.577-23.317-11.93 0.374-0.229 1.123-0.703 1.497-0.932-3.868-2.625-11.274-4.237-19.903-11.242 13.793 3.416 17.268 8.226 22.843 10.7-1.215-1.65-3.483-2.773-3.506-5.033-3.849-1.695-7.752-3.383-11.028-6.079-2.215-1.444-4.14-3.689-6.874-4.025-1.146-1.306-2.581-2.314-3.788-3.536 17.66 5.142 40.253 22.956 45.083 29.159-0.305 0.183-0.916 0.534-1.214 0.71 1.871 0.443 3.589 1.314 5.109 2.49-2.621-6.846-27.296-23.502-28.296-24.233 3.292-0.665 5.468 2.94 8.607 2.329-1.656-2.117-15.791-7.837-16.794-8.126 0.412-0.16 1.229-0.481 1.634-0.641 1 0.326 17.609 6.812 17.772 10.081 1.748 2.307 4.498 3.17 7.003 4.361-0.71-1.894-2.673-2.704-4.239-3.735 0.046-0.611 0.107-1.222 0.176-1.818-1.123-0.794-2.261-1.604-3.04-2.734 44.032 7.851 20.113 1.172 56.707 20.254 1.994 0.993 3.85 2.414 6.118 2.727-8.013-5.221-26.172-14.596-27.525-18.192 16.807 1.725 89.921 47.239 107.81 45.595-46.965-16.561-81.301-35.594-94.085-45.121 1 3e-3 18.845-1.564 20.827-1.505 6.446-1.16 12.075 3.605 18.49 3.254-3.231-1.726-6.988-1.971-10.257-3.567 11.952-1.4 25.115-1.167 32.795-1.184 7e-3 -0.229 0.03-0.695 0.038-0.924-31.285 0.182-35.675 2.227-43.159-1.367-3.255-1.127-29.297-10.099-31.664-12.777 1.084 0.107 2.2 0.259 3.307 0.374-3.166-2.199-14.371-2.897-28.503-14.725 2.9 0.116 23.161 5.535 38.271 8.821-0.019-1.709-41.852-11.564-42.853-11.632-0.076-0.405-0.237-1.214-0.313-1.619 43.755-1.154 78.607 6.234 85.966 6.247-1.447-1.132-70.592-8.751-71.592-8.844-3.643-2.086-8.225-1.704-11.616-4.285 2.101-0.092 4.216-0.199 6.309-0.512 10.71 1.487 65.192 6.109 66.193 6.087-26.171-5.377-61.462-5.578-69.347-8.539 1.55-0.183 3.108-0.374 4.674-0.58 8.686 1.902 33.609-2.474 41.051-4.147-4.066-0.812-54.747 9.289-68.461-7.294 10.407-0.905 26.808 5.276 27.808 5.438-0.863-0.573-1.711-1.153-2.322-1.978 0.313 0.021 17.645 1.438 17.864 1.329 1.222 0.191 2.459 0.382 3.712 0.535-3.264-2.419-13.755-4.449-24.394-14.06 0.115-0.29 0.336-0.871 0.451-1.161 3.19 3.124 31.719 15.182 36.163 15.313 0 0-30.266-13.208-42.471-20.797-0.879-0.955-1.795-1.864-2.681-2.788 12.611 5.819 44.54 22.526 72.914 23.821-0.252-0.244-0.756-0.733-1.016-0.985-1.002-0.233-38.641-6.154-65.628-21.461-16-9.669-35.666-24.928-35.666-24.928-1.336-3.506-5.17-5.148-7.11-8.302 4.249 0.32 9.967 2.6 10.967 3.162 1.023-0.725 2.268-0.901 3.49-1.069-0.481-0.718-0.939-1.436-1.39-2.146 13.108-1.021 5.71 0.805 42.563 34.276-0.023-0.328-0.069-0.985-0.092-1.306-1.014-0.983-30.444-29.41-31.833-32.52 4.032 2.436 6.354 7.148 10.86 8.844 4.009 0.329 6.515 3.933 8.737 6.889 0.657 1.39 1.833-0.527 2.704 0.405 0.979 0.708 12.764 8.353 14.396 8.607-1.667-2.742-12.693-8.426-19.559-14.358-2.009-1.489-2.581-4.315-4.888-5.453-0.176 0.741-0.061 1.489 0.351 2.238-10.091-7.213-12.159-9.318-12.159-9.318-0.413-3.085-3.704-4.765-5.522-7.064 0.275-0.031 0.832-0.084 1.115-0.115 0.512 0.313 1.031 0.634 1.566 0.962 0.421-0.191 1.253-0.573 1.673-0.764 2.222 2.398 4.43 4.835 6.82 7.08-3.986-6.354-9.913-11.174-15.053-16.558 0.535-0.076 1.604-0.214 2.139-0.29-2.436-3.757-6.584-5.835-9.501-9.134-0.359 0.214-1.077 0.641-1.428 0.855-1.97-1.583-11.981-12.062-16.688-14.641 0.275-0.252 0.825-0.764 1.1-1.016 0.413 0.289 10.974 8.159 11.433 8.264-3.989-5.798-8.523-6.859-9.455-10.242 2.123 1.627 4.284 3.193 6.461 4.766l0.069 0.367c23.071 16.544 22.633 19.791 31.596 27.548-1.598-4.061-28.333-29.112-33.681-33.07-1.444-2.452-4.988-3.598-5.041-6.744-0.542-0.374-1.077-0.749-1.596-1.115 0.581-0.092 1.742-0.283 2.322-0.382 1.161 0.779 2.192 1.803 3.544 2.284 0.505 0.832 9.659 9.173 11.693 10.608 0 0 33.725 38.274 34.406 38.614-0.781-4.142-14.008-16.755-14.603-19.208 2.497 1.856 4.284 5.278 7.782 5.247 1.245 1.459 2.597 2.818 4.002 4.132 0.015 0.41 30.62 37.148 40.684 44.022-0.863-1.011-34.051-36.611-37.209-42.624 26.3 21.648 54.096 47.626 101.44 59.044 9.759 2.866 38.235 5.656 40.547 5.392-7.877-3.588-64.213-2.772-102.92-35.865 0.359-0.145 1.062-0.428 1.413-0.573-0.809-1-23.77-18.748-25.501-18.887-0.216-0.224-21.596-19.486-21.896-19.719-0.357-3.18-5.802-6.24-11.487-13.19 4.548 0.759 11.574 10.265 16.81 12.235-0.962-1.321-2.024-2.558-3.047-3.811 2.704 0.665 4.59 2.849 6.973 4.155h0.481c3.92 4.037 39.317 28.877 47.718 31.779-1.339-1.606-27.298-21.46-29.465-21.293-0.981-2.942-15.956-12.495-21.278-17.299-1.344-4.224-5.843-6.217-8.829-9.165 0.42-0.099 1.26-0.298 1.68-0.397-1.413-1.52-3.353-2.665-5.453-2.757-4.773-3.002-9.569-5.95-14.312-8.997 2.344-0.671 32.498 12.732 58.67 37.415 1.856 1.749 3.459 3.872 5.804 5.018-0.122-0.298-0.351-0.901-0.466-1.199-19.368-19.231-42.41-35.002-67.919-44.862 1.773-0.589 44.7 12.808 88.471 45.717 4.643 3.284 8.706 7.37 13.64 10.226-0.084-0.343-0.252-1.031-0.328-1.382-2.345-2.299-5.331-3.865-7.477-6.37 8.581 4.582 21.218 14.663 29.213 13.732-0.787-0.618-1.673-1.069-2.612-1.336-15.968-4.337-73.346-48.859-83.514-50.888-1.833-1.252-3.696-2.436-5.621-3.513 0.145-0.344 0.428-1.031 0.573-1.375-3.789-3.124-8.379-5.033-12.35-7.882 0.268-2.467-2.772-2.948-4.628-2.826-8.317-6.079-18.009-9.745-27.548-13.396 0.061-0.298 0.198-0.909 0.267-1.207-12.607-4.547-13.042-4.593-14.625-4.422-4.193-1.871-8.653-3.154-13.113-4.185 1.581-0.641 3.262-0.244 4.896 0-0.459-1.169-1.337-2.299-2.727-1.757-2.551-1.214-5.629-1.107-7.882-2.917 0.443-0.145 1.322-0.42 1.757-0.557-2.108-2.154-5.102-2.964-7.492-4.705 5.626-2.088 29.385 9.748 32.52 10.089-3.611-3.286-21.114-8.657-23.004-10.44 9.461-1.338 21.666 3.388 25.241 3.406-2.314-1.084-5.071-1.199-7.118-2.795 1.535-0.321 3.086-0.046 4.636 0.076 9.438 4.2 33.368 3.935 34.368 3.979 6.291 0.429 35.025 30.136 36.025 30.962-3.106-7.893-31.977-29.953-32.856-30.954 8.471 0.17 33.904-5.77 39.791-6.858 2.413 0.512 4.361 2.337 6.866 2.658-1.207-1.527-2.948-2.421-4.529-3.475 0.398-0.23 1.192-0.688 1.589-0.917 6.274 1.587 27.725 22.605 38.691 24.898-11.257-5.636-21.025-13.671-30.931-21.354 3.628-0.504 5.446 4.552 9.104 4.178-1.406-1.764-3.422-2.933-4.682-4.819 2.192 0.672 3.254 3.23 5.69 3.322-1.749-2.513-4.269-4.346-6.866-5.896-0.046-0.32-0.137-0.97-0.183-1.298 47 13.545 31.658 23 106.68 25.73 2.039-0.038 4.246 1.169 6.125-0.122-12.674-0.186-35.304-1.131-49.032-4.132 0.566-0.389 1.131-0.794 1.696-1.214-0.701-0.186-15.01-4.033-15.809-3.895-3.758-1.803-7.592-3.475-11.395-5.171-2.707-2.593-14.06-6.617-15.061-6.935 4.192-0.809 7.56 2.964 11.7 2.536-5.957-3.292-12.693-4.835-19.078-7.088 0.389-0.153 1.16-0.458 1.55-0.611 4.613 1.382 9.425 1.909 13.992 3.475v0.512c0.435-0.023 1.321-0.061 1.756-0.084 3.826 0.972 25.257 10.066 27.769 10.738-0.726-0.74-1.467-1.451-2.2-2.161 5.114 1.309 20.762 9.134 34.261 8.768-0.486-0.469-17.029-3.962-19.307-4.796 1.573-0.206 3.169-0.359 4.773-0.512-6.285-2.008-13.052-2.321-19.116-5.086-2.574-0.817-4.987-2.619-7.729-2.566-0.542-1.26-2.375-2.299-3.658-1.657-0.214-0.252-0.634-0.771-0.84-1.031-2.055-1.512-4.316-2.711-6.561-3.887 0.894-0.473 1.978-0.756 2.864-0.053 7.782 3.819 15.565 8.31 24.363 9.104 0 0-28.554-12.471-28.556-12.472-0.099-0.466-0.191-0.932-0.267-1.39-3.429-2.063-7.469-2.758-10.929-4.667 0.405-0.176 1.222-0.542 1.627-0.718 11.931 3.84 28.228 6.797 28.228 6.797 1.436 2.974 25.226 8.686 42.685 7.63-0.115-0.183-0.336-0.534-0.443-0.71-2.688-0.496-5.483-0.13-8.118-0.924 3.872-0.458 7.797 0.221 11.662-0.382l0.581-0.909c-5.164-1.426-24.244 1.604-42.296-4.559 0.076-0.137 0.244-0.428 0.328-0.565 5.04 0.487 27.86 0.606 31.428-1.207-19.266 0.219-32.153-0.718-32.153-0.718l0.466 0.222c-2.902-1.26-6.14-0.55-9.073-1.604-1.688-0.375-3.17-1.337-4.804-1.757-2.749 0.123-5.369-0.778-8.034-1.252 0.359 0.397 1.069 1.199 1.428 1.604-0.191 0.115-0.588 0.336-0.779 0.451-5.308-1.153-10.089-4.681-15.687-4.2-0.542-0.795-1.024-1.719-2.024-1.963-3.673-1.559-7.774-1.978-11.28-3.926-4.804-3.964-10.982-5.622-16.779-7.569-0.305 0.09-21.914-2.72-29.068-1.421 0 0 25.847 0.4 57.815 15.221-4.59 1.039-9.089-1.955-13.732-0.909-11.685-2.054-23.668-2.749-35.483-1.512l-0.512-0.115c-1.001-0.553-19.532-8.656-28.083-11.051 8.025-0.552 21.687 6.156 27.25 6.423-5.766-3.52-12.892-3.688-18.788-6.812 28.214-10.843 87.652 12.123 97.3 11.158-6.43-2.566-13.403-3.459-19.941-5.743 4.887-0.038 9.814 0.435 14.671-0.42-4.063-0.787-8.21-0.634-12.296-1.184-3.857-0.497-7.805 0.068-11.601-0.894-3.246-0.604-6.317-1.963-9.593-2.345-15.125-7.508-54.098-10.497-57.662-10.646 1.153-0.939 2.543-1.481 3.941-1.993-1-0.044-9.943 1.788-15.962 0.848l0.313 0.458c-1.833 0.023-3.651 0.015-5.461-0.069-1.696-0.962-3.659-1.176-5.484-1.741 1.229-1.23 2.849-2.055 3.849-3.521-3.139 0.107-5.04 3.597-8.271 3.46-4.787-0.063-20.939-1.929-26.983-5.598-4.583-1.084-9.104-3.169-13.877-2.917-1.963-0.947-4.025-1.642-6.034-2.444-0.107-0.375-0.321-1.108-0.428-1.482 1.71-0.848 3.604-1.596 4.643-3.33-1.024-0.061-2.04-0.123-3.04-0.176 0.084-0.275 0.26-0.825 0.344-1.1 1.989 0.131 27.754-6.231 32.948-8.309 0 0-21.478 4.426-22.805 4.689-0.58-0.161-1.733-0.497-2.314-0.657 2.573-1.925 5.063-4.071 6.667-6.904 1.502-0.675 43.613-6.868 100.03-35.399-1.361 0.243-79.695 35.017-97.468 33.009 3.246-3.879 6.431-7.866 10.135-11.326 6.044-9.832 17.23-12.111 23.187-17.092-14.038 7.462-12.898 7.261-14.137 7.133 2.764-4.575 17.473-18.555 20.3-22.339-34.046 34.651-18.51 20.053-27.563 26.219-4.905 1.247-21.096 10.346-31.833 13.51 0.092-0.427 0.282-1.283 0.374-1.718-1.85 0.587-14.85 9.646-18.963 3.338 0.856-0.39 1.749-0.718 2.681-0.993l0.137-0.321c3.223 0.511 6.103-1.046 8.768-2.635-2.276-0.321-4.88 1.65-6.843 0.229 6.087-3.353 12.059-7.004 17.757-10.975-0.428-0.031-1.284-0.099-1.711-0.13-1.001 0.53-16.63 9.909-18.269 11.609-7.571 3.333-3.462 3.577-15.618 3.414 1.771-2.716 60.61-49.902 60.61-49.902-60.133 45.562-58.052 51.296-68.423 48.749 0 0 53.249-44.186 53.293-44.266-9.547 3.109-44.947 38.915-49.398 36.659 9.663-8.389 15.829-18.873 19.063-21.965 3.101-5.285 7.401-9.699 10.845-14.755-0.291 0.176-0.856 0.519-1.146 0.695-0.572 1-24.379 33.501-34.276 37.675-3.169-0.695-6.285 0.939-9.455 0.336 16.457-12.8 15.855-13.907 19.475-15.557 0.863-1.168 1.787-2.291 2.772-3.368-1.176 0.313-2.352 0.619-3.513 0.932 0.038 0.344 0.13 1.016 0.168 1.352-8.103 0.211-16.336 5.299-22.278 3.154 3.139-1.467 6.515-2.291 9.776-3.437 2.455 0.771 24.591-9.846 25.799-11.082-5.88 0.938-13.913 6.261-26.005 8.951 0 0 33.66-18.009 46.435-28.273-0.153-0.237-0.458-0.71-0.611-0.947l-0.733 0.16c-17.694 14.524-44.313 24.942-54.538 29.243l-0.145 0.535c-0.74 0-2.23-0.015-2.978-0.015 4.536-2.879 8.225-7.209 13.518-8.775 3.536-1.077 7.255-1.749 10.478-3.704-11.371 1.294-33.441 8.267-37.782 4.162 5.916-1.491 8.339-3.556 13.938-5.392 2.598 0.103 19.799-2.13 23.89-3.353-9.994-1.119-25.196-1.466-25.196-1.466 25.614-6.058 27.926-3.655 29.297-6.537-3.304-0.644-25.224-1.091-27.38-0.306-15.975-2.766-24.012-2.588-33.368-3.078 7.263-3.723 74.712 3.247 136.75-49.055-3.003 0.769-0.174-0.46-12.151 8.416-11.255 9.25-30.98 20.649-64.627 29.961-2.06-0.031-52.702 5.931-53.225 6.583-2.093 0.146-4.193 0.23-6.278 0.115 0.091-1.701 10.362-9.485 15.733-10.371 1.104 0.848 10.579-1.239 13.068-2.803 6.339-1.245 12.807-2.254 18.925-4.369-1.551 0.061-3.086 0.29-4.583 0.657-0.366-0.138-1.092-0.413-1.458-0.55-19.297 5.196-16.094 1.857-28.342 4.659-0.367-0.145-1.092-0.428-1.459-0.573-0.74 0.397-1.481 0.779-2.222 1.138-0.374-0.137-1.123-0.42-1.497-0.557 2.306-1.092 4.338-2.681 6.713-3.643-0.542 0.863-1.084 1.726-1.596 2.604 3.59-1.276 5.728-4.865 9.272-6.217 1.583 0.063 2.597 0.228 4.567-2.459l0.575-0.146c2.177 0.423 18.242-2.034 19.384-2.49-3.101-1.306-6.545 0.183-9.608-1.054 11.463-3.472 47.074 4.74 56.035-0.474-5.71 1.944-34.021 0.504-43.541-2.284 3.024-1.446 20.994 1.888 26.883-1.711-4.628-0.741-9.409 1.115-13.946-0.634 2.581-0.435 5.231-0.236 7.805-0.771-3.582-0.458-7.194-0.252-10.784-0.145l0.26 0.55c-3.552-0.375-7.08-0.856-10.578-1.543 2.604-1.535 5.781-1.405 8.607-2.337 0.96 0.149 6.223-1.055 7.615-1.512 0.974 0.44 33.073-4.413 37.904-5.682 2.123 0.107 4.186-0.779 6.011-1.802 14.525-3.138 27.21-11.063 33.452-14.282-0.863-0.031-1.764-0.069-2.505 0.42-15.974 8.309-10.23 5.467-22.5 10.188-5.382-1.827-7.035 1.229-15.168 2.307l0.015 0.328c-4.659 1.214-9.509 1.39-14.259 2.062-3.796-0.657-7.599 0.313-11.357 0.695l0.252 0.336c-10.394 0.79-23.508 5.608-27.25 4.139 2.063-0.653 30.213-9.806 30.213-9.806-5.468-0.097-33.596 9.46-34.597 9.837l-0.81-0.183c-1.734 2.001-5.079 1.993-6.011 4.674l-0.664-0.344c-0.374 0.168-1.13 0.504-1.512 0.672-1.283-0.413-2.612-0.787-3.956-0.703 3.146-1.887 6.484-3.338 10.142-3.926-1.795-0.26-4.109 0.664-5.484-0.741 4.76-1.22 22.755-12.418 35.246-11.326-1.093-0.214-2.177-0.466-3.231-0.771 0.45-0.191 1.351-0.565 1.802-0.756l0.557 0.229c8.355-1.199 16.802-1.413 25.234-1.138-13.012 2.675-15.203 1.271-23.813 1.81 1.993 2.306 5.82 1.535 8.592 2.505 1.759-0.431 27.9-4.655 27.907-4.659-0.901-0.428-1.787-0.833-2.673-1.23 6.292-0.367 25.903-4.278 29.854-7.76-4.964 0.016-9.21 3.452-14.167 3.521 0.917-0.947 2.131-1.482 3.292-2.085-1.092 0.015-2.192-7e-3 -3.177 0.466-19.69 8.043-31.897 5.291-33.979 5.804-1.345-0.183-2.673-0.366-3.987-0.565 7.836-1.657 16.382 0.199 23.76-3.383-1.752-0.502-36.974 3.711-38.599 1.505 8.119-1.543 16.085-3.964 23.699-7.187 5.999 0.161 19.212-4.282 24.707-6.301-5.909-2.334-6.67 1.641-16.191 2.719 3.147-2.138 6.988-3.322 9.631-6.163-3.88-0.84-6.522 2.94-10.15 3.551 0.336 0.206 1.023 0.611 1.367 0.817-0.581 8e-3 -1.749 0.023-2.33 0.031-0.795 0.772-1.566 1.551-2.322 2.345-1.978 0.214-3.902 0.771-5.85 1.092-2.466-0.471-22.936 1.357-25.768 0.649 5.553-1.42 11.09-3.001 16.451-5.063-2.659-0.501-12.991 3.395-16.145 3.498 2.864-2.704 6.95-3.506 10.043-5.904-1.192 0.107-2.398 0.283-3.353 1.039-7.534 5.138-22.589 9.454-26.28 11.028-13.878-0.991-47.792 18.462-53.629 17.665-1.527 0.879-2.963 1.895-4.33 2.979v0.321c-1.566 0.818-3.078 1.734-4.483 2.788l-8e-3 0.16c-7.19 3.572-24.314 16.162-35.414 17.146 1.726-1.222 3.513-2.62 5.743-2.589-0.077-0.267-0.222-0.802-0.298-1.069 4.811-4.063 10.303-7.24 15.03-11.41-11.171 7.019-26.309 19.897-35.414 18.444 1.268-1.322 2.933-2.078 4.789-1.986v-0.244c-0.993-0.045-1.986-0.099-2.956-0.16 2.238-4.04 7.195-6.4 7.546-11.479-2.055 3.528-5.148 6.277-7.714 9.424-3.879-1.756-7.751 0.932-11.7 1.016 0.771-1.253 1.489-2.544 2.054-3.903 5.308-4.483 12.105-6.43 18.024-9.89 8e-3 -0.244 0.015-0.741 0.023-0.985-14.37 6.638-12.005 4.49-23.416 12.449-0.81-1.168 0.29-2.879-0.741-3.803-5.618 6.693-4.578 5.937-6.209 8.607-1.283-0.092-2.566-0.237-3.834-0.168-2.153 0.71-4.101 3.597-6.476 1.825 1.482-1.252 3.162-2.245 4.705-3.429 1.71-0.366 3.452-1.061 4.727-2.306 2.061-3.911 11.303-10.216 15.259-10.921-0.352-0.138-1.047-0.398-1.398-0.535 14.323-14.405 23.999-11.11 51.185-11.532-3.66-3.601-43.38 1.39-44.381 1.344 0.919-2.215 20.795-27.976 21.598-32.543-5.141 4.489-17.105 26.837-25.524 33.65-1.318 2.358-11.751 12.028-15.611 13.121-0.084-0.275-0.252-0.825-0.336-1.092 2.872-3.826 6.63-6.843 9.379-10.753 0.275 0.114 0.817 0.343 1.092 0.458-0.539-5.152 11.447-12.223 14.022-15.206-1.337 0.687-2.582 1.726-4.132 1.802 0.482-1.001 9.204-12.859 10.226-16.275-0.013 0.012-10.523 14.336-10.532 14.351-1.39 2.643-4.284 3.888-5.781 6.454-6.877 3.939-5.18 6.17-11.891 9.822-1.864-0.083-5.056-0.152-6.011 1.276-2.046-0.458-3.941 0.863-5.995 0.695-0.129-5.155 4.293-8.875 5.232-13.732-2.69 1.07-3.265 4.01-9.073 15.305-1.52 0.878-3.002 2.222-4.888 1.81 1.902-4.086 5.835-6.744 7.798-10.799-15.19 15.076-3.829 7.301-14.816 14.549-0.886 0.023-1.726 0.328-2.566 0.504 0.976-2.112 7.789-11.482 8.241-11.968 19.737-12.414 18.649-17.643 26.326-22.698 0-0.458 8e-3 -1.375 8e-3 -1.825-0.338 0.242 2.704-2.507-16.184 14.534-1.833 0.26-3.551 0.948-5.308 1.444 0.443-0.985 0.901-1.97 1.367-2.948 3.098-3.242 19.036-15.245 19.048-15.305-0.306 0.077-0.925 0.23-1.23 0.306-1.003 0.662-18.01 12.835-21.323 16.107-2.429 0.802-4.185 2.864-6.087 4.483l-0.038 0.176c-1.94 0.886-3.506 2.337-5.171 3.62-0.328-3.552 3.979-4.942 6.53-6.347-0.626-0.138-1.864-0.413-2.49-0.55 1.566-2.551 4.399-3.995 5.942-6.561 1.963-5.239 8.668-5.812 11.517-10.394-1.932 0.206-3.712 1.023-5.522 1.634 1.177-5.016 5.778-9.356 6.897-19.261-2.993 8.622-6.316 17.52-12.838 24.149-2.842 1.482-6.103 3.04-7.676 5.957-1.417-1.725 2.218-4.701 1.482-9.233 0.741-1.001 1.13-2.215 1.596-3.361-4.025 2.666-7.775 5.927-10.662 9.837-3.231 2.528-5.209 6.407-9.043 8.187 0.558-1.298 1.184-2.574 1.841-3.834 0.352-0.062 1.054-0.191 1.398-0.26-0.816-5.481 9.567-13.388 8.302-18.566 0.123-0.986 0.268-1.971 0.428-2.956-4.977 5.056-6.329 14.945-17.581 20.3-0.183-0.313-0.565-0.925-0.748-1.23 0.886-0.871 1.825-1.688 2.757-2.528l0.626 0.428c1.795-0.81 3.368-2.131 3.941-4.086-1.084-2.368-3.253 0.756-4.75 1.321 0.642-1.535 1.359-3.047 2.421-4.338 0.94-2.964 3.048-5.446 3.628-8.516 1.398-1.604 2.803-3.2 4.109-4.888 3.307-0.855 5.392-4.154 6.652-7.133-1.283 0.878-2.551 1.818-4.025 2.337 2.473-4.359 9.03-9.192 9.402-11.754-4.299 1.676-13.225 15.225-23.454 23.103 1.038-2.573 1.657-5.277 2.497-7.912 1.077-3.445 5.935-3.216 7.271-6.492-1.588 0.367-3.162 0.825-4.735 1.207 0.986-2.208 2.895-3.926 3.422-6.347-2.246 0.397-3.689 2.291-4.896 4.048l0.153 0.649c-4.031 8.142-13.443 10.377-16.695 12.899-2.223-0.069-4.43 0.206-6.622 0.519 2.451-3.857 6.553-6.439 8.584-10.639-6.755 4.677-11.912 11.379-15.672 14.48-1.71 0.153-3.36 0.603-4.979 1.115 4.043-9.982 4.661-7.38 7.278-11.571 0.084-1.925-0.183-3.849 0.023-5.774-2.375 1.145-2.635 4.208-4.063 6.209-4.544 2.223-8.217 6.232-13.197 7.462 0.405-0.916 0.863-1.81 1.344-2.696-0.313-0.23-0.939-0.688-1.245-0.917 0.641-0.795 1.405-1.566 1.573-2.643 2.2-1.598 6.486-11.631 6.69-12.693-1.253 0.771-2.016 2.024-2.826 3.2-1.115 1.65-3.001 2.482-4.666 3.437 0.978-2.696 2.001-5.423 2.192-8.325 1.68-2.612 2.559-5.774 4.972-7.882 1.665-1.452 2.597-3.476 3.307-5.53-8.862 7.45-11.329 16.654-21.392 25.127-0.588-0.489-1.168-0.978-1.741-1.474-0.794 0.366-1.581 0.74-2.36 1.107-0.114-0.336-0.343-1.008-0.458-1.352 12.337-22.977 12.593-16.752 19.796-25.066-4.407 2.047-8.218 5.132-11.884 8.256-1.81 0.389-2.986 1.985-4.735 2.497 6.852-8.512 12.862-14.53 13.862-15.374 1.581-2.711 5.422-3.589 6.041-6.904-6.103 3.33-9.73 9.646-14.939 14.068-2.322 3.498-5.957 6.056-7.63 9.959-4.875 3.336-1.867 5.748-16.413 12.418-10.324 5.816-30.327 24.516-34.269 26.998-5.08 0.65-19.874 8.324-23.286 9.501-0.71 0.496-2.276 0.626-2.36 1.558-1.1 0.389-2.184 0.763-3.238 1.237-6.545-1.337-54.442 21.167-74.434 41.318-0.58-0.58-1.153-1.161-1.718-1.741-4.791 1.66-8.926 11.12-17.978 10.929 4.662-10.006 2.516-5.323 8.936-11.464-0.588-0.619-1.169-1.237-1.749-1.856 2.36-1.506 2.895-2.212 3.895-3.177 0.099 0.061 0.298 0.191 0.397 0.252 1e-3 0 18.353-17.581 18.353-17.581-5.208 0.958-5.166 5.013-7.996 4.117 2.1-1.367 3.879-3.124 5.254-5.224l0.351 0.084c3.513-1.337 5.025-5.056 7.996-7.126 1.443-2.101 3.215-3.872 5.3-5.331 15.032-23.332 33.32-18.627 55.562-24.279-3.955-2.637-32.114 4.7-44.258 8.745 2.023-2.636 14.059-27.464 17.574-38.423-2.657 1.082-3.597 6.205-6.896 12.571-25.988 51.411-20.03 33.127-28.182 45.236-2.199 1.787-3.521 4.635-6.354 5.552 1.291-2.574 3.788-4.223 5.835-6.171-0.046-0.542-0.053-1.092-0.038-1.642 2.07-4.125 5.812-7.195 7.439-11.571 1.39-1.161 3.276-1.49 4.75-2.536-1.092-0.077-2.185-0.138-3.269-0.176 8.578-11.623 10.284-13.712 10.599-14.026-0.783 0.142-1.552 0.291-2.32 0.447 2.91-5.889 6.27-11.708 7.5-18.246-2.553 4.467-15.663 32.74-22.805 34.849-0.741 0.459-2.253 0.459-2.215 1.627-8.794 2.008-29.731 16.539-37.851 21.843-0.726-5.809 20.729-44.328 23.699-56.921-1.338 0.944-12.279 30.448-17.306 33.872 1.237-6.905 2.787-13.809 2.795-20.858-0.199 0.13-0.588 0.382-0.787 0.512-1.382 19.914-2.013 24.653-21.4 51.117-4.881 3.911-10.632 7.263-13.992 12.663-0.809 0.413-1.611 0.833-2.421 1.253 0.917-2.979 3.185-5.202 4.957-7.676-0.29-0.091-0.878-0.275-1.176-0.374-3.093 2.253-4.353 6.286-7.622 8.325-0.443-0.176-1.321-0.519-1.764-0.695 2.095-3.701 4.145-11.284 28.999-36.063-22.828 19.63-27.74 30.718-31.214 35.56-0.084-0.329-0.259-0.986-0.351-1.314 2.66-10.738 11.509-23.447 11.899-24.447-2.101 1.192-3.155 3.598-5.232 4.873-0.504-4.285-0.519-8.6-0.435-12.877 0.726-1.085 1.52-2.116 2.108-3.292-1.054 0.473-2.101 0.962-3.147 1.443 0.588-4.139 5.102-6.079 6.125-10.035-2.375 1.397-3.918 3.742-5.957 5.529-0.504-1.024-1.016-2.047-1.543-3.055-0.016 1.398 0.458 2.811 0.221 4.193-1.107 1.711-2.971 2.857-3.681 4.827 0.84-0.413 1.681-0.84 2.513-1.268-0.72 1-13.225 18.912-12.899 22.339-0.781 0.847-7.919 13.589-8.752 16.481l-0.405 0.023c-0.825 1.612-1.161 3.666-2.765 4.728 3.969-19.02 20.916-39.275 21.499-40.661-8.793 6.177-24.998 41.496-27.563 50.91-0.465 0.321-0.931 0.642-1.382 0.97 1.035-18.165 14.851-35.701 15.427-38.874-14.372 8.851-27.834 84.856-25.822 89.96-0.214 3.627-0.023 7.339-0.81 10.898-0.192-4.064-0.478-34.498-0.489-34.551-3.547 11.624 0.738 39.677-1.115 46.649-0.855 4.17-2.398 8.294-2.169 12.609-0.705 1.423-1.238 2.923-1.719 4.445-6.515 0.977-12.34 3.041-16.147 6.088-0.594 0.475-0.955 0.255-1.432-0.145-12.998-10.905-41.013-11.272-53.839-5.22-0.831 0.392-1.532 0.346-2.344-0.144-13.368-8.061-38.196-9.686-52.688-6.17-0.77 0.187-1.519 0.305-2.288-0.023-13.878-5.928-34.249-8.138-49.124-7.496-9.243 0.399-5.52-1.439-24.907-4.732-13.269-2.254-34.597-4.104-34.597-4.104-5.132-1.148-38.746-8.074-42.442-7.065 3.724 1.622 43.247 14.269 50.513 16.174 19.775 5.186 15.617 2.974 20.043 4.965 9.451 4.25 19.239 8.333 29.297 11.113 19.546 5.404 18.836 2.724 24.351 6.1 13.824 8.463 28.587 14.429 44.943 15.612 9.65 0.698 3.668 3.7 23.268 12.525 10.136 4.564 20.625 7.718 31.929 7.107 0.656-0.035 1.175 0.095 1.63 0.614 7.284 8.3 19.866 15.962 33.434 19.076-0.987 1.549-1.533 3.516-2.313 5.111 0.55 2.237-1.237 4.406-0.053 6.56 0.749 6.133 2.994 11.968 4.025 18.07-0.718 4.972-3.254 9.814-2.49 14.923 1.451-0.633 2.658-1.665 3.681-2.856-0.275 1.734-0.497 3.49-0.657 5.247 2.115-2.948 2.665-6.614 4.04-9.906 1.925 1.551 3.032 3.804 3.857 6.087-1.497 7.53-1.299 15.244-1.948 22.866l0.206 0.519c-1.145 4.002-0.634 8.203-0.939 12.304-0.474 0.992-0.81 2.039-1.1 3.108-1.329-2.788-2.177-5.888-4.025-8.378-0.16 4.093 1.092 8.095 1.138 12.189-0.32 0.841-1.222 1.245-1.825 1.864 0.176 0.924 0.352 1.84 0.535 2.772-4.2 4.307-1.927 1.968-0.13 11.441-1.062-0.787-2.108-1.589-3.139-2.391-3.047 2.811-0.29 7.011-0.886 10.471-0.656 8e-3 -1.313 0.023-1.97 0.031-1.844 4.195 2.576 11.861 6.874 12.479 0.1-0.389 0.306-1.168 0.405-1.558-0.259 3.498-0.901 6.988-0.794 10.509 0.025-0.017 0.046-0.032 0.07-0.049-0.079 0.057-0.147 0.105-0.231 0.164-14.347 92.06-30.958 113.78 9.119 136.69 14.652 13.102 13.46 14.405 43.479 7.317 2.179-1.668 21.931-10.41 26.624-20.109 3.472-7.994-2.953-11.183-1.986-24.157 2.104-3.903 4.681-7.535 7.115-11.247 0.273-1.822 1.384-2.46 3.078-3.84 0-0.272 4e-3 -0.543-5e-3 -0.814 1.166-1.901 2.225-3.85 3.666-5.575 3e-3 4e-3 8e-3 0.011 0.011 0.015 0.171-0.113 0.357-0.202 0.55-0.276-0.054-0.217-0.103-0.417-0.141-0.571 1.153-1.688 2.306-3.376 3.452-5.071 3.604 4.151 16.695 26.074 16.695 26.074-0.099 2.192-0.259 4.391-0.603 6.568-1.452 2.503-0.042 26.047 1.146 30.756-67.306 86.377-69.841 94.019-65.971 137.04-0.147 5.633 0.439 29.695 2.902 34.055-25.745-16.032-18.288-17.217-53.034-28.923-32.236-10.237-51.158-47.036-100.94-37.538-50.605 19.311-27.478 80.119-31.573 117.26-8.205 68.641-11.603 53.681-16.092 81.025-1.216 6.677 2.684 9.814-0.535 14.503-69.315 77.714-28.073 17.728-82.201 88.112-1.062 1.467-26.44 23.882-27.64 27.181-2.553 6.885-3.246 12.663-3.317 16.311-0.071-0.422-0.149-0.866-0.242-1.357-0.973 5.747 0.066 9.449-0.153 15.229-1.42 1.513-1.519 3.659-1.802 5.614 0.389-0.146 1.16-0.42 1.55-0.558 0.115 1.009 0.237 2.024 0.359 3.063-5.371 18.419-17.291 50.409 20.277 39.508 13.366-4.865 25.593-12.525 36.522-21.545 13.461-15.779 6.7-0.671 12.632-28.587l0.42-0.435c0.458-0.084 1.367-0.267 1.825-0.351 2.07-4.72 0.527-9.799 0.863-14.702 2.154 3.811 1.81 8.485 3.964 12.258 0.397-4.223-0.229-8.393-0.802-12.548 0.397-0.145 1.207-0.435 1.604-0.588-0.145-0.328-0.443-0.993-0.588-1.321 0.382-0.817 0.542-1.627 0.489-2.444 1.176-0.45 2.353-0.862 3.544-1.252 0.794-1.016 1.542-2.062 2.375-3.032 0.26 0.015 0.779 0.046 1.031 0.069-2.07 1.71-2.498 4.551-4.216 6.56-0.328 0.016-0.993 0.054-1.321 0.069 0.527 2.834 0.733 5.713 1.153 8.577l-0.535-0.122c-0.451 2.031-0.871 4.101-0.779 6.209 0.642-1.367 1.23-2.749 1.818-4.124 0.328 1.298 0.588 2.604 0.817 3.948 1.161-0.757 2.116-1.757 2.979-2.811 0.565 0.642 1.13 1.299 1.703 1.963-0.054-2.284 1.168-5.026-0.344-6.981-0.237-0.725-0.481-1.428-0.741-2.115 0.763-1.772 1.023-3.689 0.412-5.529 0.191-0.229 0.573-0.68 0.764-0.909 0.374-0.054 1.138-0.161 1.512-0.222-0.207 1.168-0.359 2.344-0.451 3.551 2.773-0.442 2.467-3.742 4.178-5.361 0.664 2.192 1.168 4.437 1.321 6.744 2.398 1.482 2.757 4.85 5.377 5.896l-0.031 0.328c0.412-8e-3 1.245-0.023 1.657-0.031-0.153-1.474-0.344-2.94-0.275-4.399 0.489-0.535 1.275-0.42 1.917-0.588-1.709-6.362 0.185-0.888-0.519-9.463 1.077-2.482 2.505-4.895 2.169-7.721 0.726-0.489 1.062-1.336 1.505-2.039 0.359 0.076 1.076 0.229 1.443 0.313 2.047-2.405 3.895-5.033 5.094-7.973 0.206 0.321 0.619 0.97 0.825 1.291 1.833-3.154 4.025-6.125 5.598-9.417 0.214-0.092 0.649-0.267 0.863-0.359 3.024 9.198-1.214 0.221-1.214 19.849 0.68 1.71 1.527 3.696 3.368 4.437-1.484-2.22-3.86-9.575-0.283-18.269 1.123 2.422 2.413 4.743 4.124 6.813-0.351-2.52-2.535-5.583 0.153-7.538 1.003-0.923 15.401-11.549 19.139-19.559 0.504 1.734 0.626 3.735 2.047 5.041 0.874-4.098-0.685-7.838 5.4-13.946 2.528 1.836 14.46 6.85 25.845 8.684 0.023-0.741 0.053-1.467 0.084-2.177 5.639 2.667 32.7 20.197 37.583 19.911 9.369-6.692-4.512-61.048-7.225-72.539-2.275-4.025-4.025-3.207-15.29-10.463-0.084-0.405-0.244-1.222-0.328-1.627-0.688-0.634-1.26-1.352-1.711-2.154-0.176-0.94-0.031-3.315-1.65-2.551 0.068-2.459 2.818-1.352 4.353-1.451 0.328 0.917 0.657 1.864 1.008 2.811 0.627-2.971-0.794-5.652-1.466-8.447 4.224-2.978 9.631-2.963 14.244-5.01 40.364-16.145 70.883-14.953 83.522-18.291 13.281-2.322 25.906-7.4 39.195-9.661 7.706-1.313 15.152 2.589 22.843 1.352 7.855-0.658 29.607-6.547 39.042-6.797 39.242-1.936 23.994-4.933 44.411 12.991 19.806 15.714 113.45 77.107 115.69 78.26 60.357 34.502 162.08 35.432 163.08 35.844 0.299 1e-3 0.598-1e-3 0.898 0.01l-0.024-0.111c43.157-2.583 95.901-12.82 113.11 1.718 5.157 14.869-0.762 15.496 16.168 59.273 0.497 5.362-1.29 10.715-0.832 16.115-0.303 18.884 6.912-13.097-1.734 66.452-2.124 16.937 1.435 40.467 1.825 44.663 29.7 142.32 38.495 95.683 17.589 154.61-17.394 44.522 3.445 6.066-40.119 76.633-7.148 11.082-13.747 22.591-22.278 32.703-46.395 46.394-9.502 21.494-54.951 62.58-3.345-0.978-6.965 0.328-8.966 3.154-1.073 0.485-19.189 13.934-20.017 14.603 0 1e-3 -14.25 25.087-14.251 25.089-2.245 1.604-4.078 3.918-4.918 6.568 1.214-1.107 2.596-2.062 4.33-1.787 0.351 0.817 0.71 1.649 1.092 2.497-19.211 23.549-27.818 28.372-2.803 34.918 20.399 4.353 52.288 1.668 65.49-2.36 4.614-1.746 9.309-16.853 13.984-19.406 6.019-10.201 3.973-11.346 4.116-16.657 0.649-1.825 1.527-3.742 0.718-5.659 0.833-2.314 2.231-4.36 3.04-6.667 0.374-0.1 1.122-0.306 1.489-0.405-1.26 2.848-2.23 5.812-3.124 8.798 1.946 10.976 0.536 6.387 0.512 13.762 0.382-0.855 0.771-1.695 1.176-2.52 0.283 0.252 0.856 0.764 1.146 1.016 0.314 3.307-0.015 6.682 0.917 9.936-0.244-2.956-0.015-5.919-0.206-8.852 0.679-2.07 0.71-4.247 0.832-6.385 0.245 1.344 0.061 2.932 1.123 4.017 0.107 1.726 0.39 3.46 0.642 5.201 1.077-0.703 1.864 0.115 2.658 0.779-0.444-11.24 2.761-17.713 5.95-20.781 0.657-3.337 3.972-5.14 4.491-8.523 1.665-1.275 2.848-3.093 3.887-4.88 0.962-0.619 1.94-1.207 2.925-1.78-0.61 1.665-1.542 3.193-2.26 4.827 3.017-0.962 3.376-4.804 5.988-6.362 1.268 3.375 2.459 6.789 3.597 10.226 1.39-1.94 0.855-4.881 0.229-7.019-1.451-1.726-0.672-4.078-1.489-5.98 0.283-0.84 0.589-1.657 0.917-2.459 2.23-1.299 3.612-3.506 5.163-5.484-0.089 1.053-4.726 17.79-0.183 21.377 0.466-4.056-0.717-8.058-0.221-12.075 0.573-0.535 1.176-1.039 1.764-1.558l-0.023-0.649c0.944-1.52 16.726-21.302 17.566-22.309 0.145 0.611 0.428 1.841 0.573 2.452 2.307-2.421 1.253-6.286 3.17-8.913 0.305 0.023 0.909 0.069 1.214 0.092 1.535-2.818 0.138-6.423 2.001-8.966-0.198 1.084-0.404 2.153-0.557 3.276 0.275-0.176 0.825-0.519 1.1-0.695 1.551-2.696 1.94-5.888 2.956-8.798l-0.313-0.382c0.909-4.437 1.81-8.898 2.345-13.373 1.184-1.771 2.245-3.62 3.429-5.384 0.236 0.16 0.71 0.489 0.939 0.649 0.896 20.966-8.545 38.247-10.868 40.111-0.168-0.382-0.512-1.13-0.68-1.512 0.389 2.131-1.932 5.048 0.122 6.545 2.913-3.225 13.124-24.753 12.212-28.579 2.314-7.393 2.306-15.251 3.727-22.82 0.244 0.054 0.718 0.161 0.962 0.222-0.389 7.851 0 15.703-0.16 23.569 0.184 8e-3 0.543 0.023 0.726 0.031 0.275-5.018 0.465-10.028 0.71-15.03 0.305 0.772 0.626 1.566 0.962 2.383 1.215-1.825 0.176-4.025-0.053-5.957 2.267-1.209 3.9-8.593 3.33-9.936 0.435-2.696 1.008-5.437 0.718-8.164 0.894-1.306 1.726-2.65 2.597-3.948 0.71 11.739 4.392 23.08 5.476 34.788 1.635-2.948 0.038-6.064-0.229-9.104-0.489-4.093-0.275-8.21-0.611-12.296 2.36 2.07 2.307 5.537 3.231 8.348 0.651-6.354-2.708-13.185-3.872-13.747-0.024-0.511 1.28-14.242 1.285-14.154 0.188-4.422 52.472-81.047 55.407-84.498 34.459-38.063 7.998-34.312 15.328-114.14 23.221 21.603 43.818 31.431 38.019 113.58-5.536 77.139-2.903 71.317-14.526 92.862-4.234 12.093 2.867 16.019-17.642 30.389-2.829-1.084-3.781-1.936-39.806 22.209-1.058 1.57-8.543 15.738-9.035 16.779l-0.199 0.015c-0.687 1.245-1.352 2.505-1.978 3.803-1 0.478-5.602 6.695-3.719 9.356 2.184-1.818 4.521-3.857 5.346-6.683 0.42-0.23 1.267-0.688 1.695-0.917l0.084-0.596c0.076 0.55 0.221 1.65 0.29 2.2-5.305 7.362-22.119 23.382-26.448 29.182-10.646 13.348 74.414 15.079 78.481 13.388 1.596-1.25 13.325-12.418 15.099-13.251-0.069-0.603-0.206-1.818-0.275-2.421 2.092-0.764 4.032-1.848 5.926-3.017 1.901-0.45 3.444-1.733 5.239-2.459 0.092 0.634 0.26 1.917 0.344 2.551 0.603-0.794 1.214-1.565 1.848-2.306 0.366 3.192-2.047 5.835-2.07 9.035 1.008-0.657 2.055-1.26 3.208-1.65-0.932 2.894-3.505 5.308-2.963 8.569 0.918-0.801 5.685-8.218 5.537-9.783 4.02-7.234 1.022-16.96 1.779-21.621 1.023-0.481 2.054-0.939 3.093-1.382-0.97 4.055-1.123 8.248-1.321 12.403 2.078-3.582 1.451-8.302 4.239-11.609 0.183 1.305 0.382 2.627 0.626 3.971-0.367 2.696-1.107 5.606-0.29 8.271 2.247 2.392 2.155-5.334 4.231-7.843-0.297 5.127 1.467 19.736 6.331 20.697-0.217-1.772-3.95-15.53-1.894-22.347 0.505 0.947 0.65 2.009 0.833 3.101 0.367-2.754 3.685-18.279 9.585-25.218-0.649 2.596-2.65 5.086-1.94 7.866 2.757-4.353 4.643-9.188 7.507-13.48 0.237-8e-3 0.71-0.023 0.947-0.031 0.81-1.398 2.292-2.811 1.635-4.552 1.726-3.772 2.734-7.82 4.223-11.677 0.229 0.161 0.688 0.489 0.909 0.657-0.137 0.375-0.412 1.131-0.55 1.505 0.836 2.182 3.714 21.766 3.666 22.767 0.321 0.214 0.955 0.649 1.276 0.863 0.145 1.42 0.977 2.589 1.894 3.658-3.019-7.938-0.365-37.269 1.726-45.969 1.662 5.326-0.375 18.145-0.13 19.773 1.657-0.436 1.749-2.238 2.23-3.567 0.985-3.987 3.704-7.194 5.193-10.967 0.618-2.009 2.726-2.75 3.933-4.262 1.451-5.278 2.421-10.677 3.872-15.947 1.489 1.5 4.834 8.469 4.315 15.26 4.75-3.162 10.051-47.263-2.696-61.114-3.246-6.346-5.835-13.037-9.463-19.177 2.161-0.962 2.543 2.589 4.414 3.177 1.885 4.344 1.467 3.99 15.763 27.548-0.252-2.474-1.443-4.681-2.581-6.82 0.267-0.168 0.802-0.496 1.069-0.664 2.841 4.269 3.826 9.5 6.896 13.617 0.657-3.078-2.069-5.407-2.115-8.401 0.878 1.375 1.581 2.971 3.009 3.926-0.099-3.192-2.787-5.491-3.765-8.424 0.199-0.381 0.589-1.145 0.787-1.527l0.458 0.687c-0.095-1.714-11.635-21.861-14.144-22.66-3.826-5.865-8.096-11.471-11.227-17.749 0.13-1.65 0.305-3.292 0.504-4.911 0.207 0.229 0.627 0.695 0.833 0.932 0.359 1.505 0.863 3.162 2.123 4.201 0.367 3.781 3.758 6.416 6.095 9.165 3.362-0.059 5.301 5.87 10.463 11.204 0.229-0.481 0.703-1.451 0.932-1.932 2.195 3.593 5.031 6.713 7.665 9.975-8.682-12.358-27.155-38.652-27.155-38.653 0-2 5.231-61.968 6.591-66.536 17.956-60.959-4.041-34.409-41.058-114.7-19.329-39.903-13.586-23.917-24.684-40.852 146.03-95.008 130.58-210.37 139.76-223.14 20.295-0.527 38.918 19.984 29.167 54.744-0.975 1.547-23.06 84.933-22.813 86.73-0.511 1.596-1.092 3.216-1.214 4.911 0 0-3.7 12.606-9.043 27.601-17.044 29.031-23.616 64.678-22.675 91.946-1.975 8.14 0.75 7.106-8.729 42.502-1.673 6.049-1.894 12.357-3.017 18.513l0.344 0.39c-0.939 3.765-0.458 7.683-0.962 11.509-0.153 0.26-0.458 0.771-0.611 1.031-1.575 35.598-10.359 86.923-6.507 93.978 11.811 59.683 13.363 93.767 17.925 95.52 0.031-0.334-6.045-32.994-5.934-39.057 8.445 35.994 3.651 15.005 10.035 34.948 1.367 1.687 0.794 4.834 3.223 5.445-0.115-2.035-7.244-22.335-7.844-25.623-7.916-35.593-7.146-36.307-9.05-41.02 0-2e-3 -3.643-35.834-3.643-35.834 1.326-9.071-1.691-13.159 3.643-36.369-0.736 12.753-1.012 40.5 3.36 49.727 1.222 9.929 4.483 19.414 6.728 29.129l0.176 0.283c-0.091 3.355 6.314 44.384 7.775 46.168-2e-3 0.606 6.521 28.792 7.133 31.665-0.84 2.757-0.252 5.651-0.16 8.477 0.588-0.145 1.183-0.267 1.802-0.374 6.834 25.707 3.474 35.278 2.032 45.114-0.498 2.337-1.783 18.155-0.535 20.491 1.81-9.662 1.619-19.644 4.346-29.152 0.229 1 12.013 58.084 18.001 59.609-0.31-1.002-19.528-47.382-17.031-70.752 0.881 1 20.98 66.475 26.83 68.354-1.711-5.529-4.002-10.837-7.034-15.771-6.051-12.549-20.144-78.402-18.895-87.012 3.101 6.393 3.926 13.549 6.362 20.186 5e-3 3.654 3.989 41.304 12.647 60.488-0.24-1.651-9.32-30.132-7.591-42.922 0.734 0.412 1.222 1.031 1.459 1.863 2.933 8.515 5.346 17.367 9.967 25.157 0.034-2.869-12.666-38.946-12.922-39.225l-0.076-0.39c0.53-3.025-2.68-19.257-5.476-20.774-1.423-3.402-1.727-5.001-3.689-8.203 1e-3 -0.064-3.605-13.361-4.514-17.68 0.657-2.619-0.412-5.17-0.351-7.782 1.963 2.864 1.993 6.79 4.422 9.31-0.574-5.519-1.99-7.096-5.056-18.406 0.175-0.374 0.527-1.123 0.71-1.497 2.517 8.35 2.887 8.574 3.887 8.783-0.184-3.635-2.643-6.728-2.475-10.379 1.718 4.979 3.032 10.409 6.14 14.709 0.955 3.773 2.314 7.461 3.582 11.158-0.123 0.367-0.359 1.108-0.474 1.482-4.728-9.496-4.034-12.328-5.797-13.258 0.753 5.4 9.105 24.136 9.692 28.243 0.229-0.046 0.672-0.122 0.894-0.168 0.362 1 4.922 24.459 5.063 29.419 0.343-0.435 0.702-0.855 1.084-1.252 9.819 52.555 45.517 109.63 52.705 112.93-25.271-34.55-40.4-71.674-40.875-78.81 0.245 0.122 0.726 0.359 0.97 0.481 0.6 1 18.658 44.422 34.238 54.042-1.764-4.819-6.27-7.973-8.569-12.487 0.306-0.321 0.917-0.963 1.222-1.276-5.828-9.141-28.036-48.43-28.464-60.526-1.222-12.38-7.271-23.6-9.264-35.804 2.952 5.062 31.664 87.222 48.78 103.53 0.249 2.244 7.693 13.326 11.311 13.243-0.573-2.443-6.171-10.642-7.714-11.486-9.827-13.566-29.376-53.829-29.977-54.829 0.864 0.52 1.803 0.963 2.75 1.421 0 0-26.404-66.398-27.135-67.72-0.643-1.642-12.051-16.733-12.541-29.915 0 0 2.645 8.714 53.072 106.28 0.798 1.109 14.496 20.329 15.022 21.866 2.192 3.162 5.285 5.644 7.973 8.409 0 0-29.403-42.341-45.152-77.924 0.443-0.229 1.336-0.695 1.787-0.924 1.253 3.987 3.276 7.66 4.972 11.471 0.229-0.695 0.473-1.375 0.733-2.032-0.43-1.002-9.748-22.387-11.502-25.386 0.259-0.069 0.786-0.206 1.046-0.275 0.771 0.672 12.072 21.964 13.106 22.752 0.687-3.024-0.79-3.784-8.905-19.826 0.344-0.145 1.016-0.443 1.352-0.596 0.198 0.466 0.588 1.398 0.779 1.864 0.232 3.265 7.276 12.028 8.24 13.037-0.268-3.979-3.506-6.843-4.789-10.478-0.748-0.955-0.817-3.17-2.306-2.956-0.611-1.993-1.253-4.002-2.299-5.789 1.223-4.364 2.343 4.756 8.722 7.813 0.043 0.141 6.397 15.6 6.942 16.1 0.16 0.634 0.413 1.253 0.764 1.864-0.55 5.224 2.704 9.784 4.766 14.351 1.78 4.896 2.627 10.143 5.079 14.809 0.759 7.847 2.88 8.198 5.453 14.87 3.445 0.298 2.704 5.392 5.629 6.553 0 0 3.719 8.438 3.719 8.439-0.138 0.367-0.428 1.1-0.573 1.459-0.713-1-13.28-18.205-14.312-19.055 0.591 3.516 17.646 25.759 19.093 27.64 1.925 2.558 2.116 6.377 4.789 8.309 1.153 2.773 2.031 5.728 3.719 8.264-0.336 3.47 11.007 25.145 17.688 32.459-1.406-8.149-4.858-15.84-7.294-23.737 0.122-0.604 0.359-1.803 0.481-2.406 23.357 27.683 26.202 26.876 44.136 45.534 4.571-7.17-8.18-16.464-10.608-21.346-1.894-3.543-2.971-7.881-6.82-9.844-3.815-5.957-13.907-15.383-14.908-15.924-2.017-4.59-4.919-8.828-6.24-13.678 0.504 0.13 1.505 0.397 2.001 0.527 1.817 3.383 4.529 6.186 6.881 9.203 0.084 0.58 0.245 1.749 0.321 2.329 0.795-0.343 1.635-0.626 2.452-0.916 1.184 1.008 2.452 1.948 3.857 2.681-0.84-2.872-2.772-5.216-3.826-7.981 1.772 1.146 3.467 2.444 5.369 3.437-1.065-7.265-7.614-6.145-7.087-11.639 3.455-4.206 5.32 5.352 10.196 6.156-1.782-6.167-17.669-24.974-18.314-30.458 0.626 0.458 1.26 0.939 1.909 1.451 1.054 2.039 2.673 3.681 4.628 4.903 3.146 1.955 4.781 5.4 7.194 8.088 1.084 1.36 2.971 1.512 4.376 2.467 9.243 17.124 9.55 28.352 16.069 28.426 3.864 6.432-1.911 8.869 4.918 13.503 2.505 2.406 1.52 5.965 2.78 8.913 0.962 0.802 1.993 1.558 3.009 2.352-0.565-1.94-0.389-3.91 1.054-5.415-2.345-8.241-4.911-16.451-6.515-24.852 0.443-3.292 1.1-6.545 2.154-9.684 0.756-0.398 1.527-0.772 2.314-1.123-0.852-3.423-3.474-8.08-4.132-9.081 0.741-5.063-5.048-7.614-5.231-12.288 0.97 0.863 1.933 1.741 2.933 2.627 4.165-0.719 7.399 10.606 7.668 12.411 0.382 0.856 0.191 2.544 1.673 2.322 0.512 3.543-0.817 7.446 1.199 10.669 0.497 3.307 0.818 6.637 0.642 9.997 0.336 0.313 1.015 0.932 1.359 1.245 0.624 2.446 1.873 6.443 2.856 4.116-0.321-2.68-1.451-5.529 0.527-7.912 1.191 0.97 2.13 2.207 2.978 3.513 1.06 0.395 14.484 8.534 17.268 10.837 8.74 2.368 18.068 20.488 24.837 19.445-0.511-4.536-0.959-2.319-8.737-12.563-2.876-3.843-0.252-3.291-10.272-13.312-0.146 2.749 2.276 4.765 2.245 7.515-6.85-3.639-29.282-16.483-28.243-25.02 0.175-5.972-2.146-11.669-2.154-17.596 1.848 0.779 3.467 2.008 5.239 3.001 1.283 1.596 2.543 4.078 5.01 2.795 0.271 1.002 5.251 11.572 8.195 12.495 1.115 3.444 3.207 6.568 5.972 8.928 1.663-1.47-0.384-8.49 0.573-10.898 0.458 0.038 1.375 0.106 1.825 0.137 1.413 3.2 1.68 7.942 5.071 9.615 1.481-0.038 2.902-0.458 3.887-1.642 1.237 0.603 2.94 3.788 3.979 1.611-0.434-1.004-8.373-13.871-6.507-17.237 2.169 3.299 3.009 7.767 6.072 10.31-0.733-2.642-2.093-5.04-2.849-7.66 8.081 5.316 7.504 12.217 13.098 13.724-1.076-2.91-3.742-4.827-5.002-7.63 3.582-3.654 7.873 6.097 15.515 7.445 0.146-0.198 0.436-0.596 0.581-0.794-0.764-1.543-2.123-2.658-3.406-3.712zm-60.119-147.02c4.262 5.873 7.737 12.502 9.524 19.559-7.285-6.633-7.797-12.713-10.081-17.497 0.168-0.711 0.352-1.398 0.557-2.062zm-371.85-760.89c-3.842-0.313-7.783-0.435-11.395-1.894-4.224 1.428-8.493-1.589-12.724-0.298-4.229-0.834-15.969-13.776-18.627-17.329 6.405 2.933 15.75 12.328 16.222 12.533-1.482-2.032-3.911-3.276-4.911-5.644 5.705 2.521 10.669 6.568 16.55 8.722-7.907-6.44-25.444-13.277-30.206-23.233 1e-3 1e-3 45.091 27.143 45.091 27.143zm-30.091-353.52c0.046 0.291 0.13 0.863 0.168 1.146-5.216-2.696-10.44-5.392-15.817-7.737 5.659 0.718 10.784 3.765 15.649 6.591zm-208.7-206.3c0.721 0.86-7.734 6.095-9.31 7.492-0.443 0.115-1.329 0.336-1.78 0.451 2.979-3.429 5.919-8.21 11.09-7.943zm-605.54 906.61c0.439-0.295 0.663-0.446 0.746-0.501-0.095 0.063-0.373 0.251-0.746 0.501zm114.3-96.022c-0.034 0.026-0.032 0.025 0 0zm0.299-0.232c0.95-0.603 1.412-0.897 1.486-0.944-0.072 0.046-0.61 0.387-1.486 0.944zm8.79-91.404c-2.932-5.053-8.241-9.151-6.018-13.167 2.719 6.706 7.304 5.39 9.715 12.052-1.238 0.352-2.475 0.711-3.697 1.115zm5.347-1.679l0.214 0.382c-3.673-6.559-5.348-7.519-9.088-12.663 0.03-0.359 0.076-1.084 0.099-1.451 3.047 1.642 5.804 4.3 9.394 4.575-2.43-4.921-7.968-1.844-6.179-11.418 3.36 1.718 6.904 3.215 10.677 3.727-1.68-1.688-3.903-2.612-6.049-3.513-0.665-0.612-1.306-1.238-1.94-1.864 0.053-0.329 0.168-0.986 0.221-1.314 3.559 0.993 7.149 2.039 10.868 2.1-1.51-2.061-15.173-5.98-15.05-18.137 1.649-7.367 4.496-22.171 3.288-27.221 5.277 3.092 39.459 46.608 48.23 52.873-10.056 4.546-32.984 11.807-44.685 13.924zm125.63-606.52c0.041-0.037 0.035-0.031 0 0zm35.19-19.378c1.028-1.214 0.902-1.065 0 0zm56.348-99.056c-1.978 2.214-4.04 4.429-4.918 7.339-1.489 4.506-6.392 6.706-7.683 11.273-3.351 2.024-3.977 2.547-7.424 3.284 3.947-2.363 15.068-20.569 20.025-21.896zm-39.691 7.339c-0.863 6.263-4.17 11.724-6.683 17.406-1.192 1.084-2.475 2.062-3.834 2.925-0.932 0.168-1.863 0.336-2.795 0.489 1.159-2.396 11.52-18.858 13.312-20.82zm-27.64 48.223c3.949-5.117 8.195-9.997 12.472-14.847 2.296-1.208 12.53-10.871 13.106-12.395-3.666 0.855-5.469 5.216-9.272 5.506 7.552-7.074 18.701-14.262 20.987-15.588-0.68-0.443-1.359-0.886-2.039-1.329 0.398-0.175 15.738-9.647 26.25-14.824l0.137 0.565c-4.376 5.466-12.3 14.581-18.024 18.612 6.618-10.516 10.957-11.523 12.365-13.556-2.727 0.306-5.186 1.535-7.233 3.33 0.252 0.344 0.504 0.687 0.764 1.031-15.343 14.443-34.563 37.65-34.558 38.821-0.916 0.939-1.871 1.833-2.818 2.734-0.359-0.367-1.062-1.108-1.421-1.482-0.97 0.397-1.94 0.794-2.902 1.184 2.169-2.23 5.331-3.704 6.377-6.835-5.107 2.085-4.037 3.942-14.435 11.746 0.061-0.893 0.145-1.787 0.244-2.673zm-28.577 1.833c11.102-19.475 13.069-22.567 13.406-23.008-6.737 4.667-17.764 28.853-18.294 29.851 1.299-9.726 19.529-42.724 19.849-43.739-2.307 2.345-3.712 5.377-5.858 7.859l-0.26-0.978c2.96-5.779 8.603-14.311 10.318-15.382 0.371 16.765-0.599 13.566-4.46 19.888 0.496-0.084 1.497-0.244 1.993-0.328-1.261 3.368-3.285 6.354-4.98 9.508 0.397-0.084 1.207-0.252 1.604-0.336-5.695 17.298-12.54 26.766-23.224 54.111-0.369-2.16 9.641-37.015 9.906-37.446zm-45.501 167.56c0.22 0.95 0.524 1.887 0.778 2.834-0.254-0.946-0.558-1.883-0.778-2.834zm4.184 116.49c-0.073 0.111-0.503 0.763-1.255 1.903 0.769-1.166 1.174-1.781 1.255-1.903zm7.169-68.559c-0.203-1.59-0.179-1.403 0 0 0.483 4.326 0.456 4.087 0 0zm2.073 16.013c0.133 0.842 0.212 1.688 0.255 2.537-0.043-0.848-0.122-1.694-0.255-2.537zm105.93-189.04c0.817-0.336 1.611-0.726 2.413-1.115-0.802 0.39-1.596 0.779-2.413 1.115zm-5.721-8.118c-0.038-0.481-0.069-0.954-0.084-1.428 3.576-4.605 10.833-9.392 13.503-10.28-1.283 2.963-2.818 5.812-4.521 8.554-3.109 0.595-6.187 1.481-8.898 3.154zm12.021 296.98c0.627 1.127 1.189 2.156 1.153 2.156-0.376-0.723-0.763-1.44-1.153-2.156zm-1.615-2.878c6e-3 0.01 0.078 0.137 0.187 0.331-0.063-0.109-0.123-0.221-0.187-0.331zm5.916-300.5c-1.78 0.741-3.559 1.459-5.331 2.215 1.558-4.345 4.727-7.767 7.286-11.517 2.948-0.214 4.727-3.108 7.637-3.49-3.391 4.124-5.958 8.874-9.592 12.792zm9.874-23.889c3.406-1.069 6.636-2.749 10.203-3.276-0.534 0.771-1.122 1.504-1.779 2.161-1.962 0.736-3.1 1.26-8.424 1.115zm177.33-82.735c-1.925 2.36-5.56 2.627-6.897 5.514-1.207 2.115-3.33 3.406-5.499 4.353-1.872 2.864-4.354 5.217-6.599 7.775-0.97 0.061-1.924 0.122-2.879 0.183-1.581 2.36-3.804 4.315-6.721 4.651 1.016-1.909 2.078-3.803 3.437-5.491 9.241-6.008 4.648-12.047 25.158-16.985zm-17.268-3.644c-10.136 10.7-12.645 9.167-13.793 13.121-1.314 1.451-2.796 2.757-4.453 3.788 0.466-2.841 1.191-5.697 2.818-8.126 3.538-2.944 14.266-8.614 15.428-8.783zm-23.7 8e-3c2.849-1.826 6.416-2.399 8.913-4.789-2.215 0.772-4.354 1.764-6.599 2.452 3.284-4.292 7.745-7.515 10.685-12.105-0.259 2.017-0.595 4.018-0.985 6.011-0.603 0.886-1.252 1.742-1.886 2.597-0.046 1.092 0.115 2.245-0.443 3.238-3.33 2.948-7.531 4.575-11.586 6.232-0.061 0.259-0.191 0.771-0.252 1.023-2.352 0.436-4.17 2.047-6.064 3.376l-0.26-0.359c3.399-1.948 5.072-5.774 8.477-7.676zm0.474-17.184c0.344 0.054 1.039 0.161 1.39 0.214-0.167 0.357-8.051 13.864-8.248 14.206-4.261 2.268-8.095 5.239-11.746 8.378-0.344 0.084-1.023 0.26-1.367 0.344 1.145-2.357 10.235-15.137 11.227-16.329 2.367-2.926 6.148-4.117 8.744-6.813zm-39.927 28.838c3.07-1.694 12.312-11.635 19.353-15.641 2.574-1.482 5.063-3.108 7.454-4.865 0.443 0.015 1.321 0.046 1.764 0.061-0.98 2.338-10.218 15.287-11.227 16.237-6.232 1.535-11.693 5.079-17.917 6.637 0.183-0.809 0.374-1.619 0.573-2.429zm2.519 3.85c-0.29 0.794-0.588 1.58-0.901 2.367-3.785 2.936-7.352 7.291-14.984 12.495-1.367 0.314-2.742 0.581-4.101 0.917 1.794-2.792 10.164-13.349 19.986-15.779zm9.226 0.068c-0.584 1.013-11.313 13.579-17.497 11.8 6.756-4.708 4.157-4.01 17.497-11.8zm-81.36 83.171c0.701-1.034 0.534-0.787 0 0zm4.98-5.224c-0.684 1.058-0.508 0.785 0 0zm0.747-41.128c1.305-1.661 36.291-24.622 46.802-27.96-23.632 22.644 4.242-0.205-46.114 28.06l-0.688-0.1zm15.161-3.993c-3.949 0.947-7.317 4.193-11.441 4.025 0.023-0.267 0.076-0.787 0.099-1.054 2.974-1.314 16.447-9.579 31.512-15.282-0.153 2.054-2.322 3.146-3.322 4.796-6.693 1.78-15.454 6.564-16.848 7.515zm17.811-5.04c2.054-2.704 3.902-5.598 6.247-8.065 2.154-1.291 4.651-1.933 7.057-2.643 0.351 0.145 1.054 0.42 1.405 0.557-3.024 1.925-5.69 4.354-8.401 6.683 0.145-1.604 1.176-2.895 1.963-4.239-3.055 2.268-4.949 5.789-8.271 7.707zm5.078 38.766c3.139-2.347 1.727-1.291 0 0zm7.851-44.204c3.766-2.475 6.378-6.309 10.242-8.646 1.894-0.252 3.803-0.39 5.72-0.489-0.592 0.699-9.844 9.094-12.258 10.776-1.474 0.099-2.94 0.29-4.399 0.489 0.23-0.71 0.459-1.42 0.695-2.13zm3.798 36.557c0.765-0.085 1.551-0.068 2.305 2e-3 -0.755-0.07-1.54-0.086-2.305-2e-3zm4.294 23.763c0.366-0.523 0.753-1.032 1.17-1.518-0.417 0.486-0.804 0.995-1.17 1.518zm1.967-38.929c2.315-2.305 1.246-1.24 0 0zm2.615 12.715c0.017-0.027 0.033-0.054 0.05-0.08-0.017 0.026-0.032 0.054-0.05 0.08zm2.258-18.962c-0.215 1.356-0.153 0.96 0 0zm4.359 23.637c-0.468 0.499-1.27 1.696-3.65 5.632 3.11-5.143 3.356-5.507 3.65-5.632zm-3.006-24.565c0.327-0.224 0.312-0.214 0 0zm5.726-22.901c-2.703 2.398-5.392 4.835-7.958 7.378-1.183-0.122-2.367-0.252-3.551-0.374 3.834-3.422 6.813-8.875 12.426-9.371-0.229 0.588-0.688 1.772-0.917 2.367zm22.485-21.498c-3.521 8.553-12.243 12.616-18.803 18.429-0.206-5.597 14.175-17.35 18.803-18.429zm4.992 65.766c0.498-0.636 0.955-1.302 1.316-2.033-0.361 0.732-0.818 1.397-1.316 2.033zm-10.408-50.354c-0.122-0.68-0.244-1.36-0.351-2.032 3.957-6.321 8.172-11.354 24.623-18.948-1.445 3.757-2.223 3.62-6.721 8.141-4.198 1.628-14.891 9.22-17.551 12.839zm18.613 59.288c0.233 0 0.313 0.029 0.404 0.057-0.134-0.017-0.267-0.029-0.404-0.057zm1.65-2.986c-1.193 2.08-1.059 1.845 0 0zm10.631-63.542h1.489c-2.176 2.642-4.101 5.484-6.27 8.126-1.52-1.428-3.376 0.069-5.064 0.313 2.41-5.407 6.215-6.137 9.845-8.439zm-8.952 65.747c0.289-0.269 0.543-0.601 0.757-0.998-0.214 0.397-0.468 0.729-0.757 0.998zm1.838-12.289c0.455-0.472 0.912-0.964 1.427-1.332-0.515 0.368-0.972 0.86-1.427 1.332zm3.203-1.922c-3.321 3.45-2.931 3.044 0 0zm3.488 9.2c0.437-0.418 0.804-0.779 1.116-1.095-0.312 0.316-0.679 0.677-1.116 1.095zm1.123-1.101c0.013-0.013 0.023-0.023 0.035-0.036-0.013 0.013-0.022 0.023-0.035 0.036zm6.182-44.452c-0.474 0.657-0.978 1.284-1.436 1.948-2.467 0.694-4.995 1.466-7.026 3.085-1.558 1.077-2.857 2.811-4.896 2.887 3.009-3.139 6.239-6.003 9.615-8.737 1.459-0.459 2.918-0.932 4.384-1.398-0.214 0.741-0.428 1.474-0.641 2.215zm1.26 55.992c-0.068 0.168-0.147 0.352-0.268 0.594 0.054-0.141 0.15-0.35 0.268-0.594zm6.224 5.832c-1.878 1.367-2.082 1.515 0 0 0.344 8e-3 0.328 8e-3 0 0zm2.428 0.069c-0.701-0.018-0.772-0.02 0 0zm-3.964-72.372c1e-3 -1e-3 11.799-12.257 11.8-12.258 3.185-1.069 5.216-4.162 8.592-4.834-0.226 0.229-15.831 16.179-16.13 16.84-1.429 0.092-2.841 0.183-4.262 0.252zm6.866 77.863c1.142-0.159 0.78-0.108 0 0zm16.115-2.551c0.419-0.672 0.98-1.197 1.615-1.628-0.635 0.431-1.195 0.957-1.615 1.628zm7.042-2.008c0.391-0.384 0.843-0.698 1.333-0.957-0.49 0.259-0.942 0.574-1.333 0.957zm-10.647-58.411c2.314-4.801 4.226-10.151 13.992-11.769-1.022 3.075-11.328 10.541-13.992 11.769zm37.637-5.798c0.122 0.169 0.382 0.512 0.504 0.688-2.536 4.361-7.408 6.431-11.395 9.188-0.298-0.504-0.886-1.512-1.176-2.016 7.754-5.386 1.86-1.808 12.067-7.86zm-17.733 4.362c1.756-1.787 3.544-3.543 5.323-5.323 1.245-0.184 2.505-0.367 3.765-0.535-0.352 0.463-8.655 10.3-10.181 11.624-0.183-1.993 0.367-3.933 1.093-5.766zm-4.202 50.649c1.107-1.176 2.07-2.474 3.032-3.765 1.703-2.284 4.697-3.261 6.316-5.583-0.328-0.198-0.985-0.595-1.306-0.794 1.322-0.71 2.62-1.466 3.926-2.222l0.137 0.237c-0.702 0.886-2.054 1.482-2.077 2.742 0.39 0.1 1.176 0.306 1.566 0.405-3.253 1.833-5.521 4.987-8.943 6.576-0.909 1.245-1.856 2.475-2.864 3.643 0.053-0.313 0.16-0.931 0.213-1.239zm3.865 8.12c-0.083 0.455-0.057 0.312 0 0 1.028-1.161 0.734-0.828 0 0zm-3.625 31.294c0.264-0.294 1.175-1.309 2.586-2.882-1.535 1.711-2.351 2.621-2.586 2.882zm9.583 0.706c0.413-9e-3 0.837 0.035 1.275 0.154-0.438-0.119-0.861-0.164-1.275-0.154zm-1.881-20.18c1.023-1.148 2.155-2.196 3.4-3.105-1.245 0.909-2.377 1.957-3.4 3.105zm15.189-10.571c0.431-0.206 0.888-0.424 1.401-0.668-0.516 0.246-0.972 0.464-1.401 0.668zm3.952 29.347c-1.762 1.463-1.03 0.855 0 0zm-0.088-34.547c0.066-0.037 0.238-0.132 0.494-0.274-0.274 0.153-0.433 0.241-0.494 0.274zm1.341-0.743c0.15-0.083 0.306-0.169 0.473-0.262-0.171 0.095-0.328 0.182-0.473 0.262zm9.15 35.762c0.523-0.097 0.941-0.152 1.03-0.152-0.347 0.039-0.69 0.09-1.03 0.152zm-1.026 0.222c0.341-0.086 0.692-0.16 1.007-0.218-0.339 0.062-0.675 0.134-1.007 0.218zm7.376 13.696c7e-3 -0.011 0.019-0.031 0.03-0.048-0.014 0.021-0.023 0.035-0.03 0.048zm12.338-81.446c2.283-0.871 4.75-1.497 7.217-1.169-1.611 2.604-4.681 3.391-7.492 3.895 0.061-0.817-1.047-2.436 0.275-2.726zm113.7 58.631c-0.466-0.412-0.917-0.817-1.352-1.214 3.322-0.336 6.499-1.481 9.844-1.718 0 0-6.024 3.233-11.257 6.362-3.307-1.222-6.827-1.428-10.31-1.581 4.132-1.665 8.707-1.382 13.075-1.849zm-15.684 91.009c0.549 0.088 1.095 0.182 1.616 0.327-0.521-0.145-1.067-0.239-1.616-0.327zm-0.202 171.79c-0.109-0.187-0.107-0.184 0 0zm2.18-4.064c0.671 0 1.153-0.046 1.594-0.046-0.533 0.046-1.064 0.055-1.594 0.046zm-15.17-176.18c1.549 1.77 1.449 1.656 0 0zm0.56 125.82l-0.078 6e-3 0.078-6e-3zm-3.954-139.86c1.444-0.489 2.853-1.083 4.211-1.751-1.358 0.669-2.767 1.262-4.211 1.751zm10.757 282.84c0.215 0.021 0.421 0.104 0.61 0.288-0.189-0.183-0.395-0.267-0.61-0.288zm-0.956-342.7c-0.129-0.13-0.381-0.382-0.511-0.504 4.093-0.771 8.256-1.092 12.425-1.069-0.911 1.426-1.544 2.736-11.914 1.573zm12.747 217.86c-2.215-1.149-1.389-0.721 0 0zm4.493-33.364c-0.658 0.08-1.307 0.211-1.941 0.42 0.634-0.21 1.283-0.34 1.941-0.42zm-1.881 63.881c-0.375 0.037-0.759 0.13-1.153 0.292 0.394-0.163 0.778-0.256 1.153-0.292zm-1.115-20.971c-1.125 0.4-0.743 0.264 0 0zm-23.309-228.59c3.184-2.173 4.006-3.257 6.148-4.491 1.283 0.115 2.582 0.275 3.88 0.428-1.726 0.795-4.223 0.894-4.964 2.956 2.856-0.13 5.3-1.711 7.981-2.528 4.23 0.221 8.5 0.023 12.708 0.695-5.486 2.209-17.614 1.062-25.753 2.94zm24.127-19.857c-2.269 2.215-5.232 3.552-7.355 5.927-0.878 0.473-1.749 0.97-2.688 1.237-5.957-0.535-11.876-1.543-17.719-2.78 1e-3 0 27.761-4.383 27.762-4.384zm-51.667-10.99c7.469 0.023 14.908-1.405 22.385-0.588 5.224-0.015 10.325 1.52 15.557 1.199-5.5 3.725-16.824 1.623-37.942-0.611zm-8.156 1.665c2.341-0.117 26.67 0.03 28.579 2.284-9.03 2.793-28.885 0.976-29.885 0.199-0.428-2.055 2.352-0.779 3.528-0.894-0.558-0.397-1.673-1.191-2.222-1.589zm70.393-9.408c-28.633 11.064-35.358 4.111-48.192 5.002-14.512 1.193-13.062 1.19-17.803 0.947 2.788-2.161 5.835-3.986 8.768-5.949 5.812-0.359 11.585 1.405 17.428 1.054-5.324-0.528-10.586-1.62-15.932-1.864 0.65-0.848 1.329-1.688 2.093-2.452 5.687-1.281 52.637 3.101 53.638 3.262zm-46.932-30.856c-0.702 0.397-1.443 0.695-2.207 0.886-0.917-1.749 1.512-2.688 2.207-0.886zm42.953-6.599c-4.529 1.635-9.226 2.75-13.747 4.407-3.803 0.298-6.919 3.032-10.761 2.925-1.444 0.046-2.887 0.099-4.3 0.214 0.863 0.413 1.764 0.787 2.688 1.123-4.742 1.711-8.851 4.842-12.922 7.737-0.886 0.179-2.952 0.032-3.857-0.031 4.498-2.833 8.966-5.743 13.625-8.317 1.761-2.648 4.581-4.134 9.501-7.087l-0.802-0.512c3.025-0.733 6.126-0.878 9.234-0.695-1.23 1.642-2.956 2.734-4.621 3.857 2.329-0.321 3.582-2.413 5.323-3.727 3.49-0.749 7.118-0.359 10.639 0.106zm13.548-33.237c0.458 0.268 1.367 0.818 1.825 1.085 3.109-0.963 6.393-2.543 9.692-1.459 3.322 0.924 6.866-0.275 10.127 0.932-4.807 1.509-39.107 8.11-45.236 7.744 7.79-2.994 15.993-4.819 23.592-8.302zm-45.413 22.462c20.262-12.381 44.876-14.561 55.424-16.474 0.405 0.19 1.222 0.58 1.627 0.771-17.309 5.326-37.007 17.289-41.73 20.033-24.601 3.507-17.147 3.291-23.798 4.995-0.642-0.115-1.909-0.359-2.551-0.474 6.958-2.642 14.519-3.146 21.522-5.636-7.309-0.504-13.992 3.184-21.171 3.849 0.268-1.023 0.543-2.047 0.81-3.07-3.055 1.627-5.071 5.048-8.859 5.132 2.688-3.101 6.568-4.75 9.898-7.034-0.16 0.542-0.489 1.642-0.649 2.184 4.963-1.892 4.177-4.558 9.477-4.276zm-3.687-3.094c-5.178 2.948-10.111 6.294-14.816 9.929-1.52 1.413-3.765-0.619-5.323 0.718-2.001 1.382-3.788 3.047-5.545 4.712 3.314-0.504 5.208-3.956 8.63-4.185-2.139 2.261-4.613 4.483-7.737 5.163-1.703 0.45-3.658 0.489-4.926 1.871 0.29 0.206 0.878 0.619 1.168 0.825-5.952-0.958-7.582 0.954-12.357 1.703 8.609-7.491 33.64-19.24 40.906-20.736zm-53.072 49.398c-0.084 0.397-0.244 1.184-0.328 1.581 5.596-1.395 6.415-2.179 7.889-3.162 0.695 0.344 1.405 0.687 2.131 1.031-0.222 0.481-0.665 1.459-0.886 1.94 0.978-0.282 1.971-0.565 2.971-0.84-0.642 0.642-1.291 1.283-1.948 1.894-0.641 0.329-1.267 0.657-1.886 0.978 0.015-0.458 0.046-1.375 0.061-1.833-3.832 2.677-22.262 2.58-25.616 2.069 7.014-2.173 3.651-3.241 17.612-3.658zm-12.687 84.263c0.042-0.039 0.039-0.037 0 0zm5.653-62.213c18.461-3.867 14.77-1.53 26.654-3.086 4.116 1.207 8.477 0.305 12.609 1.489-0.336 0.115-1.008 0.352-1.344 0.474-21.174 1.098-23.882 4.554-27.853 1.772-1.864 1.009-3.826 1.864-5.919 2.238-1.489-0.207-2.925-0.611-4.338-1.062 0.054-0.458 0.145-1.374 0.191-1.825zm14.739 58.105c-1.646 0.157-3.308 0.327-4.962 0.552 2.325-0.34 4.405-0.552 4.962-0.552zm-2.955-0.955c3.218-1.654 1.884-0.968 0 0zm-2.813 1.628c-0.322 0.048-0.642 0.103-0.962 0.156 0.321-0.054 0.642-0.106 0.962-0.156zm-2.479 0.43c-0.698 0.139-1.395 0.283-2.083 0.46 0.626-0.161 1.336-0.315 2.083-0.46zm5.979 4.739c6.879-1.489 3.916-0.847 0 0zm17.978-20.637c3.067 1.999 2.871 1.871 0 0zm0.085-40.438c2.879-0.596 5.652-1.589 8.424-2.559 5.614-0.031 11.288-1.375 16.848-0.046-2.184 1.061-4.369 2.123-6.637 2.986-1.002 0.019-17.105 0.144-18.635-0.381zm6.652 67.246c1.814-0.391 1.353-0.291 0 0zm5.219-9.368c0.849-0.368 1.652-0.841 2.38-1.492-0.727 0.651-1.531 1.124-2.38 1.492zm-0.017-51.357c0.473-0.512 0.962-1.016 1.466-1.512 5.929-2.492 10.405-4.076 29.686-1.023-3.078 1.222-6.4 1.558-9.478 2.734-1.003-0.114-15.731-1.193-21.674-0.199zm11.287 74.144c1.194-0.647 1.816-0.983 1.935-1.047-0.106 0.057-0.774 0.419-1.935 1.047zm22.691 16.595c2.26 0.153 4.437-0.397 6.247-1.802-1.81 1.406-3.987 1.955-6.247 1.802zm3.951 169.39c-0.03-4e-3 -0.06-8e-3 -0.091-0.012 0.032 5e-3 0.059 8e-3 0.091 0.012zm0.02 222.66c0.584 0.401 1.213 0.74 1.876 0.98-0.664-0.239-1.292-0.579-1.876-0.98zm3.964 1.36c-1.425 0-1.001-1e-3 0 0zm3.345-91.855c1.778 1.242 1.106 0.773 0 0zm3.517-133.44c0.462 0.159 0.91 0.382 1.347 0.642-0.437-0.259-0.885-0.483-1.347-0.642zm2.157 182.78c1.171 0.754 1.073 0.691 0 0zm0.531-125.35c1.071 0.97 3.366 2.672 2.601 2.202-0.947-0.643-1.79-1.406-2.601-2.202zm4.174-136.6c-1.465 0.286-1.001 0.195 0 0 1.78-0.369 1-0.207 0 0zm-0.528 63.822c-0.054-0.053-0.104-0.109-0.158-0.162 0.044 0.042 0.098 0.097 0.158 0.162zm0.298 67.648c-0.891-0.601-1.73-1.263-2.542-1.955 1.222 0.981 4.028 2.99 2.542 1.955zm-1.341 152.15c-2e-3 -9e-3 -2e-3 -8e-3 0 0zm0.583 1.784c-0.031-0.091-0.216-0.638-0.501-1.48 0.32 0.946 0.474 1.399 0.501 1.48zm5.425-365.51c0.589 0.143 1.183 0.188 1.78 0.187-0.597 1e-3 -1.192-0.044-1.78-0.187zm7.126-55.118c-2.902 0.642-6.079-0.282-8.783 1.1 1.122 0.321 2.26 0.626 3.406 0.924-1.978 0.772-4.086 1.199-6.202 0.825 0.825-0.504 1.665-1.008 2.505-1.504-3.193-0.329-6.355 0.267-9.463 0.916-1.046-0.321-2.092-0.588-3.146-0.779 4.972-0.887 2.314 0.151 8.363-1.696 4.8 0.365 4.465-1.635 13.984-1.543-0.168 0.442-0.496 1.321-0.664 1.757zm69.752 454.32c0.13-1.39 0.283-2.772 0.489-4.139 0 1e-3 8.416 20.353 8.416 20.354-1.001-0.882-30.194-33.797-33.825-45.496 1.945 1.519 10.833 13.667 12.258 15.672-1.474-4.728-4.407-8.791-6.385-13.297 0.488 0.153 1.473 0.443 1.97 0.588-4.337-4.919-4.323-4.135-6.751-7.569 1.787-0.277 9.854 0.685 12.113 8.729 0.581 3.177 2.467 5.881 3.391 8.951 0.115-0.367 0.336-1.092 0.451-1.459 0.702 0.466 1.428 0.947 2.161 1.436-5.72-9.723-1.574 0.488-6.11-13.51 1.97 0.71 3.994 1.314 6.056 1.772 4.285 8.668 4.491 18.559 5.766 27.968zm-45.863-208.76c2.032 2.146 4.735 3.406 7.164 5.025 0.068-0.329 0.198-0.993 0.267-1.329-1.001-0.797-8.973-7.074-8.752-8.5 8.461 4.778 9.594 7.953 12.38 10.272-1.077-0.397-2.306-1.184-3.07 0.061 3.124 1.774 5.429 3.442 7.187 4.468 0.061 0.695 0.153 1.413 0.237 2.123 2.054 1.558 4.024 3.307 5.231 5.636-1.161-0.145-2.291-0.283-3.421-0.428 3.704 2.696 8.233 4.651 10.486 8.89-16.389-5.57-5.815-5.212-21.255-18.834v2.261c-1.009-0.978-2.009-1.955-3.002-2.933 0.947-0.573 1.879-1.161 2.826-1.757-1.397-0.451-2.818-0.825-4.269-0.97-0.252 0.282-0.756 0.847-1.016 1.13-0.875-0.967-1.039-1.294-1.741-2.383 0.595 0.214 1.787 0.649 2.39 0.863-0.549-1.214-1.038-2.429-1.642-3.595zm-0.664-97.684c0.771-0.305 1.565-0.546 2.375-0.726-0.809 0.18-1.604 0.421-2.375 0.726zm23.287 124.94c-0.748-0.13-1.466-0.275-2.169-0.451 1.878-2.83 8.134 1.012 9.134 1.78-2.368-0.282-4.545-1.794-6.965-1.329zm8.026 45.489c-0.038 0.336-0.114 1-0.145 1.336-15.464-8.706-12.365-14.487-18.91-19.544 0.183-0.328 0.558-0.978 0.741-1.306 2.551 1.994 5.331 3.674 7.958 5.591 2.726 5.14 7.882 8.599 10.356 13.923zm-27.969-41.738c4.728 4.865 8.371 10.639 12.938 15.634 1.344 4.46 4.972 7.652 6.958 11.784-1.993-0.718-3.276-2.421-4.529-4.01-16.646-19.426-18.757-17.035-15.367-23.408zm13.03 22.827c-2.268-1.168-4.445-2.482-6.759-3.536-3.796-3.253-6.507-7.538-10.089-11.005 0.061-0.451 0.183-1.359 0.237-1.81 0.222 0.158 14.844 14.148 16.611 16.351zm20.4 40.532c-9.516-7.612-12.119-14.522-16.49-17.627 0.023-1.062 0.061-2.116 0.107-3.17-2.559-3.07-5.934-5.315-9.539-6.98-1.451-1.726-2.864-3.475-4.292-5.201-7e-3 -0.336-7e-3 -1.016-0.015-1.352 5.98 5.287 25.966 15.794 30.229 34.33zm-22.37 53.263c3.659 3.316 5.115 5.518 7.974 9.004-1.199-0.382-2.398-0.756-3.559-1.199-2.958-2.612-3.283-3.081-5.377-7.225 0.236-0.145 0.725-0.435 0.962-0.58zm30.275 1.451c0.962 0.703 1.932 1.413 2.971 2.039 0.458 1.955 1.313 3.788 2.329 5.522-1.053-0.405-2.115-0.794-3.146-1.222-2.46-2.054-4.82-4.246-6.767-6.797 1.527 0.122 3.077 0.244 4.613 0.458zm-4.705 29.358c-1.818-1.039-2.704-2.971-3.643-4.728 0.153 1.1 0.306 2.215 0.451 3.33-6.495-1.796-3.779-6.756-8.462-7.828-1.55-1.831-2.061-2.445-3.567-6.003 1.787 0.779 3.658 1.344 5.621 1.489 1.413 1.031 3.124 1.497 4.842 1.818 1.092 4.17 3.796 7.698 4.758 11.922zm-0.069-65.307c-0.313 0.023-0.939 0.076-1.252 0.107-2.591-2.581-10.979-12.655-12.403-14.58 2.268 0.84 4.307 2.177 6.163 3.727 2.505 3.582 5.537 6.797 7.492 10.746zm14.939-10.914c-3.712-0.318-11.389-2.284-14.832-5.682-2.154-5.858-5.43-11.174-8.34-16.665 8.218 6.942 14.702 15.672 23.172 22.347zm-24.019-52.17c5.554 4.711 17.361 22.349 20.285 27.563-0.077 0.321-0.23 0.947-0.306 1.26 1.611 1.52 3.276 3.139 3.704 5.415-8.719-5.813-23.25-33.237-23.683-34.238zm48.87 51.926c-1.464-0.751-17.658-15.083-21.942-20.002-0.229 0.237-0.695 0.695-0.932 0.932-0.802-0.817-1.604-1.634-2.345-2.482 0.283-0.756 0.58-1.504 0.886-2.253-5.444-8.57-23.113-29.902-25.31-33.009 5.128 1.164 10.765 4.721 14.435 4.857 1.069 0.336 2.116 0.764 3.185 1.176 0.429 1.008 27.747 45.593 32.023 50.781zm-12.502-53.01c0.152 0.351 0.45 1.061 0.603 1.42 2.398 2.024 4.422 4.438 6.736 6.561-0.191 0.198-0.565 0.595-0.756 0.794-1.93-1.194-8.925-7.505-7.225-10.226l0.55 0.764c0.818 0.099 1.65 0.191 2.49 0.275-1.031-1.054-1.985-2.108-2.894-3.231 4.193 1.443 8.034 3.864 12.479 4.582 2.031 0.924 3.383 2.741 4.46 4.643-5.475-1.864-10.463-5.568-16.443-5.582zm-8.325-9.502c4.98 0.138 10.074 0.695 14.74 2.536 0.879 1.153 1.742 2.322 2.643 3.475-5.359 0.827-12.961-2.777-17.383-6.011zm23.866 11.814c4.285 0.856 8.142 3.093 12.457 3.88 2.039 2.276 4.132 4.529 5.736 7.149-7.74-1.422-12.438-1.623-18.193-11.029zm65.461 39.44c-7.334-4.324-27.334-19.777-28.335-20.56-0.129-0.343-0.374-1.038-0.496-1.382 1.703-0.451 3.322 0.71 4.964 1.054-1.726-2.474-5.721-2.451-6.538-5.598 18.44 10.989 21.163 10.36 31.26 26.028-0.214 0.115-0.641 0.344-0.855 0.458zm18.139-3.139c-1.971-1.069-8.972-9.667-9.631-11.83 3.28 1.791 8.938 9.163 9.631 11.83zm-13.664-16.681c2.024 4.72 5.255 8.707 8.157 12.9-8.756-4.701-37.406-35.104-37.98-36.506 5.567 3.498 10.661 7.676 15.93 11.607-1.107-0.145-2.192-0.236-3.276-0.328 5.789 3.972 12.465 6.989 17.169 12.327zm-20.468-19.009c-3.872-2.596-7.958-4.872-11.601-7.782-0.695-0.954-1.351-1.94-1.993-2.902 2.186 1.042 13.237 8.353 13.594 10.684zm-13.35-4.856c-3.608-1.892-16.754-10.576-24.233-10.899 5.581 2.939 11.991 4.103 30.099 19.093 0.054-0.404 0.161-1.222 0.214-1.634 5.316 4.826 3.54 3.353 23.775 24.188l0.023 0.512c-1.763-0.922-27.287-17.765-45.809-24.516-14.332-16.093-15.299-13.742-23.592-21.85 1.573 0.328 3.101 0.863 4.613 1.451-2.444-3.666-6.507-5.812-10.303-7.813 6.935 1.191 13.175 4.567 19.827 6.629-3.811 0.061-7.263-1.91-11.051-2.009 2.815 3.551 27.773 6.666 36.437 16.848zm-19.123-13.931c-16.457-6.56-39.668-11.036-48.241-24.791 1.988-0.436 34.358 14.719 48.241 24.791zm-48.146-25.013l-0.102 0.212c-0.064-0.102-0.134-0.2-0.196-0.303l0.298 0.091zm2.115 37.126c3.628 3.208 7.546 7.194 12.785 7.011 1.1 1.268 2.268 2.482 3.345 3.788-6.21-2.826-12.877-4.682-18.651-8.378-0.878-1.313-1.779-2.604-2.642-3.91 1.734 0.42 3.46 0.931 5.163 1.489zm0.093-45.014c-5.224-1.147-14.521-4.487-18.482-7.897-0.374 0.176-1.13 0.527-1.512 0.703-3.78-1.917-7.209-4.46-10.57-7.034 8.323 1.849 6.666 5.302 10.799 5.865-1.382-2.268-3.819-3.666-4.972-6.087 1.588 0.649 3.139 1.436 4.651 2.291-0.451-0.733-0.894-1.458-1.314-2.184 1.283 0.145 2.574 0.29 3.872 0.504 0.748 0.344 1.496 0.703 2.26 1.069 7.375 6.784 12.077 10.222 15.268 12.77zm-10.64-34.965c-3.314 0.069-6.43-1.222-9.707-1.367-7.767-3.12-8.094-2.063-9.669-3.819 1.054 0.123 2.116 0.275 3.193 0.428 0.16-0.267 0.481-0.802 0.641-1.069 2.421 0.588 4.918 0.81 7.423 0.657 3.982 0.89 5.695 2.626 8.119 5.17zm-4.406-19.078c0.076-0.206 0.229-0.618 0.305-0.817 3.376 2.704 6.224 6.003 9.684 8.623-2.154 0.748-3.987-0.894-5.82-1.726-1.016-2.268-2.604-4.185-4.169-6.08zm15.457 35.438c-3.163-1.867-9.671-5.06-14.214-12.167 3.704 1.024 7.416 2.055 11.12 3.124 1.001 1.451 1.986 2.91 2.895 4.43 0.168 1.383 0.215 3.368 0.199 4.613zm2.513-5.774c3.292 2.154 6.019 5.14 7.905 8.6-1.505-0.125-3.376 0.833-7.905-8.6zm10.036 14.769c-0.932-0.87-1.833-1.771-2.734-2.642-0.13-0.893-0.26-1.771-0.382-2.642 2.68 0.42 4.628 2.49 5.72 4.873-0.649 0.1-1.955 0.313-2.604 0.411zm82.512 11.732c-4.248 0.492-19.197 0.15-23.149 1.909-6.813-3.551-12.846-8.347-18.849-13.075 1.535 0.26 22.638 9.611 29.809 10.54-7.624-3.503-33.298-13.327-35.987-15.137-0.779-1.023-1.466-2.092-2.161-3.154 23.477 6.073 0.072 1.517 50.337 18.917zm-42.431 1.231c-4.027 0.332-21.585-3.129-26.089-4.758-1.734-1.81-3.414-3.689-5.507-5.079 1.596 0.138 3.238 0.145 4.773-0.458-2.192-1.131-4.667-1.276-7.065-1.421-0.351-0.161-1.054-0.489-1.405-0.657-0.924-1.283-1.734-2.635-2.528-3.987 16.398 2.987 25.949 4.247 37.821 16.36zm-16.429-37.24c-2.658 0.465-5.376 1.122-8.08 0.71-1.268-0.588-2.352-1.482-3.452-2.299 3.895-0.26 7.683 1.092 11.532 1.589zm-19.62 10.187c1.222 0.71 2.414 1.497 3.605 2.291 3.712 4.361 8.699 7.271 13.121 10.822-5.23 0.428-17.292-2.984-20.56-4.819-3.338-3.681-7.385-7.507-8.134-12.647 4.05 1.531 7.756 3.301 11.968 4.353zm11.814-41.272c3.506 2.643 7.24 4.972 10.433 8.027 1.418-1.317 11.976 5.816 12.976 6.667-23.818 0.773-33.463-14.049-34.33-16.443 2.2 1.345 4.269 2.895 6.507 4.201-2.046-3.04-5.689-4.307-7.95-7.118 4.239 1.222 8.172 3.292 12.364 4.666zm-24.662-4.665c4.307 2.696 7.309 7.179 11.845 9.493-0.679-1.115-1.382-2.207-2.077-3.299 3.628 1.412 6.102 4.926 10.051 5.59 2.299 1.505 4.674 3.047 6.194 5.415-1.007-0.09-19.602-2.65-21.156-3.59 0.413-0.321 1.238-0.978 1.65-1.306-1.986-0.749-3.926-1.642-5.652-2.864-0.069-0.397-0.206-1.191-0.275-1.596 2.406 0.695 4.728 1.657 7.149 2.299-0.678-2.548-16.303-6.688-18.528-7.149 0.848-0.489 1.704-0.986 2.582-1.482 0.65 0.031 1.322 0.061 2.009 0.092-1.519-1.833-3.345-3.368-4.88-5.178 0 0 5.58 2.072 11.088 3.575zm-6.978-7.348c-4.13 5.971-15.154-4.947-17.696-6.736 5.772 0.213 15.389 5.386 17.696 6.736zm-4.331-30.863c-1.145 1.26-2.879 1.138-4.414 1.291-1.335-1.176-2.089-1.763-3.857-4.155 1.741-0.404 3.582-0.351 5.293-0.939 3.207 0.581 5.667 2.918 7.217 5.698-1.497-0.466-2.91-1.115-4.239-1.895zm10.265-6.026c2.836 2.686 6.286 6.244 8.531 9.379-7.165-0.434-11.547-0.236-15.595-6.224 1.581 0.733 3.139 1.542 4.712 2.344-1.406-1.886-3.055-3.566-4.728-5.208 2.344-0.313 4.704-0.412 7.08-0.291zm-2.879-2.496c-7.167 0.266-5.248 2.665-19.3-9.318 2.436-0.077 4.926-0.145 7.248-1.008 3.857 3.62 8.149 6.744 12.052 10.326zm-23.41-18.537c2.238 2.842 5.514 4.552 7.928 7.233-4.55-0.655-6.642 0.708-19.353-8.271 2.811-0.221 5.659 0.527 8.447-0.206 1.161-0.367 2.085 0.641 2.978 1.244zm-12.647-30.107c1.031 3.796 5.774 3.132 7.836 5.965-0.489 0.13-1.459 0.382-1.94 0.512-2.803-1.008-4.941-3.062-7.095-5.01-2.161-0.947-4.659-1.092-6.591-2.566 2.589 0.352 5.178 0.795 7.79 1.099zm-9.387-26.745c-0.274 0.298-0.832 0.886-1.107 1.184-1.26 0.061-2.489 0.069-3.719 0.107-2.78-1.78-5.995-2.971-8.134-5.606 0.466-0.084 1.413-0.252 1.879-0.336 3.903 1 7.576 2.681 11.081 4.651zm-15.029 12.136c2.971-1.598 2.764-1.486 0 0zm19.032-30.694c-5.866-1.62-11.899-2.903-17.253-5.927 5.317-1.799 3.99 0.105 17.711 4.964-0.114 0.244-0.343 0.726-0.458 0.963zm-12.32-7.813c5.69-0.153 10.853 2.849 16.474 3.009-3.116-2.536-7.615-1.91-10.998-4.048 0.207-0.214 0.604-0.641 0.81-0.855 11.824 2.163 15.655 5.618 21.858 7.003 0.825 0.443 1.657 0.917 2.49 1.39-10.142 2.766-21.828-1.651-30.634-6.499zm34.254 3.757c-4.643-1.672-9.325-3.292-13.77-5.453 20.375 0.718 40.774-2.932 46.267 1.268-1.001 0.229-27.407 4.197-32.497 4.185zm2.2 8.447c2.88-0.603 5.843-0.855 8.638-1.848 3.645 0.893 11.11 4.942 14.091 6.851-4.727-0.015-9.501-0.015-14.144-1.008 2.436-0.268 4.88-0.405 7.332-0.596-2.183-1.332-2.907-1.469-7.271-3.819-2.834 0.679-5.767 0.985-8.646 0.42zm33.26 13.426c-8.821-0.275-17.611-1.375-26.318-2.78 7.378-0.367 14.786-0.848 22.118-1.749 1.535 1.13 3.108 2.222 4.712 3.284-0.129 0.314-0.382 0.94-0.512 1.245zm2.659-0.326c-1.443-1.382-2.94-2.696-4.445-3.994 6.14-0.52 12.342-0.443 18.459 0.412-1.031-0.573-2.07-1.146-3.078-1.726 4.811-1.046 9.707-0.237 14.572-0.336-0.81-0.412-1.604-0.825-2.391-1.222 1.795-0.787 3.605-1.551 5.423-2.307-2.559 0.16-5.186 0.328-7.531 1.428-1e-3 0-29.8 0.351-29.801 0.351-2.222-0.092-3.964-1.612-5.766-2.704 2.001-0.558 4.071-0.764 6.156-0.718 5.578 2.63 24.805 1.818 27.678 0.748 5.919-1.818 6.763-1.387 15.114 0.588 1.795 1.154 3.72 2.078 5.713 2.872-1.417 0.653-31.168 7.184-40.103 6.608zm52.78-17.071c0.122-0.404 0.359-1.222 0.481-1.634 9.486 0.901 19.063 2.001 28.075 5.254 1.545 2.944 0.997 2.254 3.643 4.613-0.603 0.084-1.81 0.252-2.413 0.336-18.543-4.026-17.588-5.112-37.583-6.591-0.297-0.474-0.893-1.413-1.191-1.879 2.986 0.038 6.003 0.32 8.988-0.099zm-6.04 8.82c-1.001-0.208-15.105-3.11-15.786-4.254 2.238-0.313 4.567-0.382 6.713-1.214 3.223 1.398 6.553 2.956 9.073 5.468zm-26.998-9.035c3.201-0.206 6.462-0.084 9.593-0.901 2.756 1.049 2.107 0.593 7.92 4.139-20.389 3.121-5.962-1.893-36.193 0.313-0.184-0.381-0.558-1.145-0.749-1.527 7.888-1.199 12.929 0.183 19.429-2.024zm-3.292-18.704c-9.008 3.23-10.867 0.743-15.45 0.932 5.01-1.405 10.31-1.397 15.45-0.932zm-22.074-6.162c2.391 0.595 4.842 0.817 7.309 0.748 0.787 0.298 1.574 0.619 2.368 0.955-17.245 4.287-44.249 0.833-56.272 5.942-16.604 1.261-6.253 1.883-21.751-0.794 14.652 0.25 15.36-0.774 22.431-0.474-1.428-3.022-15.222-0.189-17.871-1.497 2.536-1.795 5.957-0.787 8.875-1.222 2.889 0.675 17.349 0.699 19.804-0.405-3.444-0.535-6.942-0.39-10.394-0.764 39.43-2.972 45.503-2.49 45.501-2.489zm-40.857-6.018c1.709 1.681 19.19 4.377 21.583 4.674-2.174 0.476-37.059 4.473-50.773 1.52 2.492-1.061 17.68-0.666 21.751-0.619-8.523-1.176-16.955-3.284-25.57-3.49 8.699-7.015 7.623-5.626 21.346-1.818-0.077-0.313-0.222-0.932-0.298-1.245 0.947-0.176 1.917-0.336 2.895-0.504-4.903 0.657-9.684-0.535-14.152-2.467 1.405-1.36 2.91-2.62 4.46-3.819 6.882 0.634 12.762 4.666 18.758 7.768zm16.924-45.374c0.214 0.061 0.642 0.176 0.863 0.237-2.932 3.574-6.033 7.584-10.814 8.592 1.214-0.198 2.421-0.397 3.666-0.565-2.078 2.727-4.919 4.773-6.79 7.668-2.582 4.304-22.134 6.111-23.76 5.132 7.527-3.073 20.269-8.063 26.25-11.716-5.907 1.248-27.453 13.166-38.431 13.205 12.775-8.351 34.394-13.073 49.016-22.553zm-54.37 16.679c2.077 0.459 4.162 0.856 6.27 1.23-3.628 1.451-7.409 2.597-11.342 2.681 3.285-3.017 3.001-2.717 5.072-3.911zm-0.06 93.921c-1.215-0.082-2.43-0.157-3.644-0.233 0.058 0 3.58 0.229 3.644 0.233zm18.443 23.481c-1.604 0.054-3.208 0.161-4.781 0.344-3.288-0.998-16.037-6.461-21.194-9.822 9.477-0.115 19.111 7.186 25.975 9.478zm-26.753 33.524c-0.16 0.021-0.337 0.045-0.543 0.073 0.213-0.029 0.389-0.052 0.543-0.073zm14.174 142.9c0.29-0.099 0.878-0.282 1.168-0.374 2.973 2.705 4.089 3.48 6.37 5.697-0.527 1.421-0.015 3.956-1.611 4.529-2.017-1.673-3.605-3.765-5.499-5.545-0.168-1.444-0.336-2.872-0.428-4.307zm4.964 189.18c-5.057-1.931-4.345-1.66 0 0zm4.797-22.766c-0.084-1.588-0.84-2.925-1.932-4.017 0.26-0.557 0.535-1.107 0.825-1.642-1.779-2.879-2.956-6.094-3.116-9.493 0.221 0.244 0.657 0.718 0.878 0.962 0.496 4.636 4.231 8.02 5.178 12.556-0.321 0.328-0.962 0.97-1.283 1.298 0.809 0.642 1.634 1.306 2.505 1.917 1.267 6.591 3.406 13.021 4.2 19.704-3.307-6.759-6.117-13.809-7.255-21.285zm17.818 32.167c-1.345-0.58-2.658-1.207-3.987-1.764-4.354-8.179-8.058-16.962-8.6-26.318 3.784 4.882 7.018 18.135 11.594 22.645 0.725 1.711 1.619 3.529 0.993 5.437zm4.391 1.452c-0.229-4.415-2.131-8.493-2.65-12.854 2.795 3.055 4.773 6.759 7.767 9.654 1.894 2.482 3.956 4.835 5.682 7.454-3.666-1.245-7.309-2.581-10.799-4.254zm28.748 10.77c-2.551-5.774-7.271-10.142-10.196-15.664-2.709-1.461-11.251-10.259-13.274-13.908 0.084-0.352 0.237-1.047 0.321-1.398-1.986-3.589-4.697-6.736-6.477-10.44l-0.092-1.252c1.427 2.057 13.756 19.51 16.153 21.705-1.36-4.048-4.689-6.973-6.339-10.868 4.3 3.241 24.789 29.262 27.128 33.81-0.43-7e-3 -1.227-0.02-1.722-0.028-1.476-0.537-3.442-1.241-5.502-1.957zm189 706.32c-0.092 1.779 1.237 2.902 2.528 3.91 3.465 19.643 1.246 35.35-1.023 37.217-2.505-5.361-3.887-11.288-2.948-17.199-0.542 0.634-1.084 1.268-1.634 1.909l-0.496 0.313c0.07-2.179 0.392-3.597 0.558-6.858 0.328 0.046 0.993 0.145 1.321 0.191 0.168-2.635 0.329-5.377-0.985-7.76-1.978-9.57-5.804-18.59-9.218-27.701-0.076-1.994-0.03-3.964-0.137-5.927 3.117 7.79 9.662 13.755 12.034 21.905zm-13.484 30.9c0.572 2.269 1 4.583 1.741 6.828 1.83-3.025-1.22-14.624 1.489-22.324 2.247 12.148 2.358 32.573-6.606 40.18-0.222-3.469 0.074-17.669 3.376-24.684zm39.76-123.98c-0.03 24.63 1.474 39.34 1.474 39.34-0.152-1.011-8.512-33.141 0.733-69.469-0.07 7.294-3.502 25.22-2.207 30.129zm39.866 156.73c2.83 3.203 5.772 23.508 6.507 27.601-0.237 0.23-0.726 0.688-0.97 0.917-3.654-15.04-6.58-19.264-5.537-28.518zm55.088 81.598c-3.778-1.552-23.753-34.878-24.47-45.633 2e-3 1e-3 24.47 45.633 24.47 45.633zm-40.455-91.419c2.144 3.66 12.732 41.024 12.823 47.604-3.738-4.358-12.914-43.083-12.823-47.604zm-0.558-22.042c3.042 4.006 11.292 23.114 10.685 26.349-3.429-8.347-7.637-16.344-11.127-24.653 0.115-0.428 0.328-1.275 0.442-1.696zm-4.07-0.145c3.786 3.539 15.086 46.572 15.053 47.573-0.556-1-15.581-43.114-15.053-47.573zm-27.967-114.38c0.066 2.941 8.968 34.13 9.363 35.139 0 1.519-0.076 3.062-0.145 4.605-3.969-9.723-7.802-21.283-9.654-28.06 0.054-3.903-0.283-7.836 0.436-11.684zm-3.858-61.229c3.222 17.696 1.599 42.094 0.894 60.495-2.141-8.73-3.502-55.043-0.894-60.495zm13.173 149.06c-0.191-0.97-0.397-1.947-0.603-2.864-0.16-0.244-0.473-0.725-0.626-0.97-5.965-31.156-16.832-56.039-20.85-71.485 0.115-0.268 0.344-0.795 0.451-1.062 0.311 1.002 5.902 18.247 7.691 19.72-2.519-11.686-12.006-27.198-8.523-45.671 1.397-2.047 1.596-4.522 1.802-6.897 0.544 12.015-3.667 24.803 12.625 64.192-0.092 0.367-0.283 1.092-0.382 1.459-0.34-1.011-3.612-10.89-5.453-12.151 0.752 3.918 11.105 27.402 14.534 49.345-0.237 2.123-0.534 4.238-0.666 6.384zm-9.209-61.748c0.168-1.428 0.466-2.818 1.031-4.124 2.772 8.318 17.033 40.17 17.52 58.403 0-1e-3 -18.551-54.278-18.551-54.279zm19.216 43.55c0.168-1.108 0.412-2.154 0.649-3.208 0.237 0.71 0.497 1.444 0.764 2.192 0.344-0.856 0.687-1.688 1.031-2.513 3.07 11.448 6.682 22.782 11.914 33.459-1.718 3.545 5.182 10.303 6.324 17.535-6.479-10.82-12.254-17.225-20.682-47.465zm128.82 192.83c7.317 15.379 5.901 3.432 12.602 19.384-1.949 0.48-21.094-18.93-22.164-20.705 1.147-8.222-1.31-4.74-2.085-11.456 0.188 0.287 11.488 12.387 11.647 12.777zm-11.022-3.353c-2.711-1.238-22.234-15.757-28.823-58.319 1e-3 1e-3 12.013 18.298 12.014 18.299 1.813 7.147 12.693 31.786 16.809 40.02zm28.351-230.07c-5.541-3.269-13.145-21.544-12.456-24.249 3.987 3.681 13.516 18.912 12.456 24.249zm3.032 3.704c-0.283-0.817-2.265-11.373-2.276-11.456 2.709 1.06 11.741 9.748 12.708 23.034-3.337-3.994-6.117-8.515-10.432-11.578zm22.293 2.658c6.292 8.168 17.818 9.07 30.557 23.546-0.19 0.321-0.58 0.962-0.771 1.283-12.294-9.929-22.923-6.004-30.221-23.05 0.114-0.443 0.328-1.336 0.435-1.779zm-15.022-16.749c8.296 8.2 17.674 30.625 18.765 36.583-6.076-2.578-12.852-17.979-13.167-18.979 1.146 0.527 2.284 1.031 3.475 1.566 0.013-4.664-9.652-13.536-9.073-19.17zm-7.195-8.066c-0.092 0.436-0.275 1.306-0.374 1.734-1.153-1.611-2.299-3.222-3.536-4.75 3.115 10.369 8.276 11.71 7.049 15.221-4.381-5.065-3.504-1.057-9.424-9.508-8.134-24.605-3.358-4.725-6.721-29.427 0 0 6.449 15.078 13.006 26.73zm-20.055-68.873c-1.642 23.115 8.032 35.64 6.453 57.647-6.814-15.365-8.48-53.48-6.453-57.647zm-2.322 66.643c0.703 0.527 1.436 1.085 2.146 1.688 2.741 6.103 6.14 11.907 8.584 18.162-8.808-8.882-8.645-10.888-10.73-19.85zm16.306 236.85c-2.116-3.024-1.894-6.912-3.536-10.15 2.482-5.889-0.794-12.136-1.016-18.185 5.212 4.677 8.545 22.456 4.552 28.335zm44.701-13.625c-1.856-6.652-6.492-11.883-9.913-17.726 0.138-0.52 0.413-1.558 0.55-2.07 0.405 0.023 1.199 0.076 1.596 0.107 2.139 2.154 4.567 3.987 6.996 5.812 0.801 2.114 3.246 4.964 3.941 14.297-1.07-0.153-2.131-0.298-3.17-0.42z"/>
 <path d="m445.5 129.55c3.803-2.207 7.614-4.437 11.7-6.11 0.092-0.183 0.283-0.55 0.382-0.733-3.798 1.21-17.324 8.345-19.101 9.585 2.528-0.412 4.544-2.138 7.019-2.742z"/>
 <path d="m1298.6 1588.9c-8e-3 2.284 1.291 4.804 3.719 5.27 0.207-2.322-0.893-5.552-3.719-5.27z"/>
</svg>
